<svg width="590" height="477" viewBox="0 0 590 477" fill="none" xmlns="http://www.w3.org/2000/svg">
<g clip-path="url(#clip0_2437_44199)">
<rect width="590" height="477" fill="#0D0E12"/>
<g opacity="0.34" filter="url(#filter0_f_2437_44199)">
<ellipse cx="458.5" cy="210.5" rx="180.5" ry="144.5" fill="url(#paint0_linear_2437_44199)"/>
</g>
<g opacity="0.6" filter="url(#filter1_f_2437_44199)">
<path d="M121.939 372.599C68.5892 350.097 16.3359 302.968 25.4389 257.283C32.4905 230.946 86.4927 224.432 82.1292 176.949C79.2906 146.036 19.8384 129.937 70.2603 72.7665C112.302 25.1051 229.301 80.6226 275.433 81.1853C362.792 83.3003 390.513 156.714 443.035 199.384C473.71 227.074 518.776 243.585 552.805 268.142C574.299 290.328 572.129 328.279 539.57 342.942C524.529 349.48 505.613 349.702 488.104 347.643C362.74 309.937 245.167 414.689 121.939 372.599Z" fill="url(#paint1_radial_2437_44199)"/>
</g>
<g filter="url(#filter2_b_2437_44199)">
<g clip-path="url(#clip1_2437_44199)">
<rect x="311.978" y="93.084" width="326.7" height="438.227" rx="17.7305" fill="url(#paint2_linear_2437_44199)"/>
<g opacity="0.8" filter="url(#filter3_bd_2437_44199)">
<rect x="311.978" y="93.084" width="65.0118" height="364.952" fill="url(#paint3_linear_2437_44199)" shape-rendering="crispEdges"/>
</g>
<path d="M341.615 123.651L327.246 131.577V131.584V150.62L332.643 153.6V134.558L341.615 129.606V123.651Z" fill="#EFEFF1"/>
<path d="M347.352 123.651V138.815H341.615V133.157L336.215 136.137V155.565L341.615 158.552V143.431H347.352V149.052L352.749 146.072V126.632L347.352 123.651Z" fill="#EFEFF1"/>
<path d="M347.351 158.558L361.721 150.632V150.626V131.59L356.32 128.609V147.652L347.351 152.604V158.558Z" fill="#EFEFF1"/>
<path fill-rule="evenodd" clip-rule="evenodd" d="M408.728 140.521C408.728 139.59 409.483 138.834 410.415 138.834H415.29C416.222 138.834 416.978 139.59 416.978 140.521V142.106L418.516 143.195C418.962 143.511 419.228 144.025 419.228 144.572L419.228 148.397C419.228 148.914 418.808 149.334 418.29 149.334H416.415C416.259 149.334 416.118 149.271 416.016 149.168C415.915 149.066 415.853 148.926 415.853 148.771V140.521C415.853 140.211 415.601 139.959 415.29 139.959H410.415C410.105 139.959 409.853 140.211 409.853 140.521V148.771C409.853 149.082 409.601 149.334 409.29 149.334C408.98 149.334 408.728 149.082 408.728 148.771V140.521ZM416.978 148.209V143.484L417.865 144.113C418.014 144.218 418.103 144.39 418.103 144.572L418.103 148.209H416.978Z" fill="#434956"/>
<path d="M411.54 145.996C411.25 145.996 411.015 146.231 411.015 146.521V148.771C411.015 149.061 411.25 149.296 411.54 149.296C411.83 149.296 412.065 149.061 412.065 148.771V147.046H413.64V148.771C413.64 149.061 413.875 149.296 414.165 149.296C414.455 149.296 414.69 149.061 414.69 148.771V146.521C414.69 146.231 414.455 145.996 414.165 145.996H411.54Z" fill="#434956"/>
<path d="M411.165 141.646C411.165 141.336 411.417 141.084 411.728 141.084H411.915C412.226 141.084 412.478 141.336 412.478 141.646C412.478 141.957 412.226 142.209 411.915 142.209H411.728C411.417 142.209 411.165 141.957 411.165 141.646Z" fill="#434956"/>
<path d="M413.79 141.084C413.48 141.084 413.228 141.336 413.228 141.646C413.228 141.957 413.48 142.209 413.79 142.209H413.978C414.288 142.209 414.54 141.957 414.54 141.646C414.54 141.336 414.288 141.084 413.978 141.084H413.79Z" fill="#434956"/>
<path d="M411.165 143.146C411.165 142.836 411.417 142.584 411.728 142.584H411.915C412.226 142.584 412.478 142.836 412.478 143.146C412.478 143.457 412.226 143.709 411.915 143.709H411.728C411.417 143.709 411.165 143.457 411.165 143.146Z" fill="#434956"/>
<path d="M413.79 142.584C413.48 142.584 413.228 142.836 413.228 143.146C413.228 143.457 413.48 143.709 413.79 143.709H413.978C414.288 143.709 414.54 143.457 414.54 143.146C414.54 142.836 414.288 142.584 413.978 142.584H413.79Z" fill="#434956"/>
<path d="M411.165 144.646C411.165 144.336 411.417 144.084 411.728 144.084H411.915C412.226 144.084 412.478 144.336 412.478 144.646C412.478 144.957 412.226 145.209 411.915 145.209H411.728C411.417 145.209 411.165 144.957 411.165 144.646Z" fill="#434956"/>
<path d="M413.79 144.084C413.48 144.084 413.228 144.336 413.228 144.646C413.228 144.957 413.48 145.209 413.79 145.209H413.978C414.288 145.209 414.54 144.957 414.54 144.646C414.54 144.336 414.288 144.084 413.978 144.084H413.79Z" fill="#434956"/>
<g clip-path="url(#clip2_2437_44199)">
<path d="M429.939 149.998V148.932C428.333 148.805 427.069 147.897 427.019 146.38H428.339C428.453 147.123 428.929 147.668 429.939 147.776V145.009L429.697 144.945C428.085 144.571 427.215 143.847 427.215 142.559C427.215 141.137 428.352 140.204 429.939 140.083V139.004H430.694V140.083C432.268 140.21 433.404 141.162 433.455 142.597H432.141C432.059 141.803 431.494 141.34 430.694 141.232V143.885L430.98 143.955C432.649 144.342 433.557 145.028 433.557 146.38C433.557 147.935 432.3 148.811 430.694 148.932V149.998H429.939ZM428.561 142.451C428.561 143.028 428.936 143.454 429.939 143.708V141.232C429.031 141.346 428.561 141.873 428.561 142.451ZM432.217 146.507C432.217 145.847 431.856 145.459 430.694 145.18V147.783C431.76 147.694 432.217 147.186 432.217 146.507ZM439.663 139.702C442.297 139.702 443.935 141.556 443.935 144.501C443.935 147.44 442.31 149.306 439.663 149.306C436.997 149.306 435.385 147.446 435.385 144.501C435.385 141.549 437.035 139.702 439.663 139.702ZM439.663 140.959C437.93 140.959 436.839 142.33 436.839 144.501C436.839 146.653 437.899 148.049 439.663 148.049C441.402 148.049 442.482 146.653 442.482 144.501C442.482 142.33 441.396 140.959 439.663 140.959ZM445.706 149.084V142.19H447.02V143.238H447.122C447.318 142.559 448.087 142.07 448.988 142.07C449.191 142.07 449.451 142.089 449.597 142.121V143.403C449.483 143.371 449.077 143.327 448.836 143.327C447.801 143.327 447.071 143.993 447.071 144.964V149.084H445.706ZM453.647 151.718C451.921 151.718 450.803 150.95 450.657 149.789H452.054C452.168 150.309 452.746 150.639 453.666 150.639C454.802 150.639 455.475 150.081 455.475 149.147V147.821H455.374C454.955 148.57 454.193 148.982 453.241 148.982C451.476 148.982 450.384 147.618 450.384 145.548C450.384 143.46 451.489 142.07 453.254 142.07C454.206 142.07 455.037 142.54 455.424 143.289H455.532V142.19H456.84V149.154C456.84 150.722 455.602 151.718 453.647 151.718ZM453.628 147.853C454.796 147.853 455.501 146.958 455.501 145.548C455.501 144.139 454.79 143.238 453.628 143.238C452.454 143.238 451.794 144.139 451.794 145.548C451.794 146.958 452.454 147.853 453.628 147.853ZM460.731 149.198C459.398 149.198 458.427 148.398 458.427 147.142C458.427 145.904 459.354 145.187 460.998 145.085L462.87 144.971V144.368C462.87 143.612 462.388 143.187 461.455 143.187C460.693 143.187 460.166 143.473 460.014 143.974H458.693C458.833 142.812 459.95 142.057 461.518 142.057C463.251 142.057 464.229 142.92 464.229 144.368V149.084H462.915V148.106H462.807C462.394 148.805 461.639 149.198 460.731 149.198ZM461.08 148.1C462.109 148.1 462.87 147.427 462.87 146.539V145.942L461.182 146.056C460.23 146.12 459.798 146.456 459.798 147.084C459.798 147.726 460.338 148.1 461.08 148.1ZM466.171 149.084V142.19H467.485V143.282H467.587C467.923 142.521 468.609 142.057 469.65 142.057C471.192 142.057 472.043 142.978 472.043 144.622V149.084H470.678V144.945C470.678 143.803 470.195 143.244 469.186 143.244C468.177 143.244 467.536 143.93 467.536 145.041V149.084H466.171ZM474.671 140.959C474.194 140.959 473.807 140.572 473.807 140.102C473.807 139.626 474.194 139.239 474.671 139.239C475.147 139.239 475.534 139.626 475.534 140.102C475.534 140.572 475.147 140.959 474.671 140.959ZM473.991 149.084V142.19H475.35V149.084H473.991ZM477.197 149.084V148.189L480.999 143.39V143.289H477.222V142.19H482.63V143.136L478.911 147.878V147.986H482.669V149.084H477.197ZM486.401 149.198C485.068 149.198 484.097 148.398 484.097 147.142C484.097 145.904 485.024 145.187 486.668 145.085L488.54 144.971V144.368C488.54 143.612 488.058 143.187 487.125 143.187C486.363 143.187 485.836 143.473 485.684 143.974H484.363C484.503 142.812 485.62 142.057 487.188 142.057C488.921 142.057 489.899 142.92 489.899 144.368V149.084H488.585V148.106H488.477C488.064 148.805 487.309 149.198 486.401 149.198ZM486.75 148.1C487.778 148.1 488.54 147.427 488.54 146.539V145.942L486.852 146.056C485.9 146.12 485.468 146.456 485.468 147.084C485.468 147.726 486.007 148.1 486.75 148.1ZM492.323 140.451H493.688V142.209H495.186V143.301H493.688V146.938C493.688 147.681 493.986 148.005 494.666 148.005C494.875 148.005 494.996 147.992 495.186 147.973V149.059C494.964 149.097 494.71 149.128 494.443 149.128C492.926 149.128 492.323 148.595 492.323 147.269V143.301H491.225V142.209H492.323V140.451ZM497.497 140.959C497.021 140.959 496.633 140.572 496.633 140.102C496.633 139.626 497.021 139.239 497.497 139.239C497.973 139.239 498.36 139.626 498.36 140.102C498.36 140.572 497.973 140.959 497.497 140.959ZM496.818 149.084V142.19H498.176V149.084H496.818ZM503.102 149.217C501.077 149.217 499.839 147.865 499.839 145.637C499.839 143.416 501.083 142.057 503.102 142.057C505.114 142.057 506.358 143.409 506.358 145.637C506.358 147.865 505.12 149.217 503.102 149.217ZM503.102 148.056C504.282 148.056 504.955 147.167 504.955 145.637C504.955 144.101 504.282 143.212 503.102 143.212C501.915 143.212 501.248 144.101 501.248 145.637C501.248 147.173 501.915 148.056 503.102 148.056ZM508.002 149.084V142.19H509.316V143.282H509.418C509.754 142.521 510.44 142.057 511.481 142.057C513.023 142.057 513.874 142.978 513.874 144.622V149.084H512.509V144.945C512.509 143.803 512.026 143.244 511.017 143.244C510.008 143.244 509.367 143.93 509.367 145.041V149.084H508.002Z" fill="#434956"/>
</g>
<path d="M524.222 151.039H523.022L526.31 139.486H527.516L524.222 151.039Z" fill="#434956"/>
<path d="M539.54 144.084C539.23 144.084 538.978 144.336 538.978 144.646C538.978 144.957 539.23 145.209 539.54 145.209H543.665C543.976 145.209 544.228 144.957 544.228 144.646C544.228 144.336 543.976 144.084 543.665 144.084H539.54Z" fill="#434956"/>
<path d="M538.978 146.896C538.978 146.586 539.23 146.334 539.54 146.334H542.165C542.476 146.334 542.728 146.586 542.728 146.896C542.728 147.207 542.476 147.459 542.165 147.459H539.54C539.23 147.459 538.978 147.207 538.978 146.896Z" fill="#434956"/>
<path d="M539.54 141.834C539.23 141.834 538.978 142.086 538.978 142.396C538.978 142.707 539.23 142.959 539.54 142.959H540.665C540.976 142.959 541.228 142.707 541.228 142.396C541.228 142.086 540.976 141.834 540.665 141.834H539.54Z" fill="#434956"/>
<path fill-rule="evenodd" clip-rule="evenodd" d="M536.728 139.771C536.728 138.84 537.483 138.084 538.415 138.084H543.135C543.383 138.084 543.622 138.183 543.798 138.359L546.953 141.514C547.129 141.69 547.228 141.928 547.228 142.177V148.396C547.228 149.328 546.472 150.084 545.54 150.084H538.415C537.483 150.084 536.728 149.328 536.728 148.396V139.771ZM538.415 139.209C538.105 139.209 537.853 139.461 537.853 139.771V148.396C537.853 148.707 538.105 148.959 538.415 148.959H545.54C545.851 148.959 546.103 148.707 546.103 148.396V142.584H543.29C542.98 142.584 542.728 142.332 542.728 142.021V139.209H538.415ZM543.853 140.004L545.307 141.459H543.853V140.004Z" fill="#434956"/>
<g clip-path="url(#clip3_2437_44199)">
<path d="M564.394 149.084H563.074V142.375H562.985L560.3 148.919H559.221L556.536 142.375H556.447V149.084H555.126V139.924H556.79L559.703 147.091H559.811L562.731 139.924H564.394V149.084ZM567.219 151.585C567.104 151.585 566.781 151.572 566.654 151.553V150.436C566.762 150.455 566.971 150.461 567.098 150.461C567.746 150.461 568.114 150.188 568.349 149.458L568.45 149.103L565.949 142.19H567.435L569.167 147.713H569.275L571.002 142.19H572.449L569.872 149.401C569.282 151.058 568.628 151.585 567.219 151.585ZM583.488 149.084L582.65 146.608H579.159L578.314 149.084H576.854L580.162 139.924H581.691L584.999 149.084H583.488ZM580.854 141.543L579.521 145.466H582.288L580.961 141.543H580.854ZM590.026 142.07C591.784 142.07 592.895 143.447 592.895 145.637C592.895 147.814 591.784 149.198 590.039 149.198C589.055 149.198 588.274 148.773 587.912 148.043H587.804V151.382H586.439V142.19H587.753V143.333H587.855C588.274 142.546 589.086 142.07 590.026 142.07ZM589.639 148.03C590.8 148.03 591.492 147.135 591.492 145.637C591.492 144.139 590.8 143.238 589.645 143.238C588.496 143.238 587.779 144.158 587.779 145.637C587.779 147.11 588.496 148.03 589.639 148.03ZM598.125 142.07C599.884 142.07 600.995 143.447 600.995 145.637C600.995 147.814 599.884 149.198 598.138 149.198C597.154 149.198 596.374 148.773 596.012 148.043H595.904V151.382H594.539V142.19H595.853V143.333H595.955C596.374 142.546 597.186 142.07 598.125 142.07ZM597.738 148.03C598.9 148.03 599.592 147.135 599.592 145.637C599.592 144.139 598.9 143.238 597.745 143.238C596.596 143.238 595.878 144.158 595.878 145.637C595.878 147.11 596.596 148.03 597.738 148.03ZM602.702 149.084V139.486H604.067V149.084H602.702ZM606.822 140.959C606.346 140.959 605.958 140.572 605.958 140.102C605.958 139.626 606.346 139.239 606.822 139.239C607.298 139.239 607.685 139.626 607.685 140.102C607.685 140.572 607.298 140.959 606.822 140.959ZM606.143 149.084V142.19H607.501V149.084H606.143ZM615.359 144.406H614.033C613.874 143.733 613.315 143.219 612.401 143.219C611.259 143.219 610.561 144.12 610.561 145.612C610.561 147.135 611.265 148.056 612.401 148.056C613.265 148.056 613.855 147.649 614.033 146.9H615.359C615.182 148.259 614.115 149.217 612.408 149.217C610.396 149.217 609.164 147.846 609.164 145.612C609.164 143.422 610.389 142.057 612.401 142.057C614.134 142.057 615.182 143.066 615.359 144.406ZM618.832 149.198C617.499 149.198 616.527 148.398 616.527 147.142C616.527 145.904 617.454 145.187 619.098 145.085L620.971 144.971V144.368C620.971 143.612 620.488 143.187 619.555 143.187C618.793 143.187 618.267 143.473 618.114 143.974H616.794C616.934 142.812 618.051 142.057 619.619 142.057C621.352 142.057 622.329 142.92 622.329 144.368V149.084H621.015V148.106H620.907C620.495 148.805 619.739 149.198 618.832 149.198ZM619.181 148.1C620.209 148.1 620.971 147.427 620.971 146.539V145.942L619.282 146.056C618.33 146.12 617.898 146.456 617.898 147.084C617.898 147.726 618.438 148.1 619.181 148.1ZM624.754 140.451H626.119V142.209H627.617V143.301H626.119V146.938C626.119 147.681 626.417 148.005 627.096 148.005C627.306 148.005 627.426 147.992 627.617 147.973V149.059C627.395 149.097 627.141 149.128 626.874 149.128C625.357 149.128 624.754 148.595 624.754 147.269V143.301H623.656V142.209H624.754V140.451ZM629.927 140.959C629.451 140.959 629.064 140.572 629.064 140.102C629.064 139.626 629.451 139.239 629.927 139.239C630.403 139.239 630.791 139.626 630.791 140.102C630.791 140.572 630.403 140.959 629.927 140.959ZM629.248 149.084V142.19H630.606V149.084H629.248ZM635.532 149.217C633.507 149.217 632.27 147.865 632.27 145.637C632.27 143.416 633.514 142.057 635.532 142.057C637.544 142.057 638.789 143.409 638.789 145.637C638.789 147.865 637.551 149.217 635.532 149.217ZM635.532 148.056C636.713 148.056 637.386 147.167 637.386 145.637C637.386 144.101 636.713 143.212 635.532 143.212C634.345 143.212 633.679 144.101 633.679 145.637C633.679 147.173 634.345 148.056 635.532 148.056ZM640.433 149.084V142.19H641.747V143.282H641.848C642.185 142.521 642.87 142.057 643.911 142.057C645.454 142.057 646.304 142.978 646.304 144.622V149.084H644.939V144.945C644.939 143.803 644.457 143.244 643.448 143.244C642.438 143.244 641.797 143.93 641.797 145.041V149.084H640.433Z" fill="#434956"/>
</g>
<path d="M427.29 221.084H424.138V209.67H424.044L419.45 221.084H417.224L412.63 209.67H412.536V221.084H409.384V204.174H413.485L418.29 216.314H418.384L423.189 204.174H427.29V221.084ZM431.427 225.736C431.298 225.736 430.243 225.725 430.126 225.701V223.053C430.243 223.076 430.864 223.088 430.993 223.088C432.235 223.088 432.857 222.689 433.091 221.693C433.091 221.635 433.22 221.143 433.208 221.084L428.837 208.521H432.587L435.259 218.342H435.329L437.989 208.521H441.599L437.275 221.354C436.208 224.576 434.626 225.736 431.427 225.736ZM458.989 221.084L457.7 216.982H451.759L450.47 221.084H446.837L452.708 204.174H456.868L462.751 221.084H458.989ZM454.689 207.408L452.521 214.334H456.939L454.771 207.408H454.689ZM471.528 208.322C474.716 208.322 476.673 210.748 476.673 214.803C476.673 218.846 474.728 221.283 471.587 221.283C469.759 221.283 468.353 220.393 467.685 218.975H467.614V225.186H464.193V208.521H467.568V210.713H467.638C468.318 209.236 469.712 208.322 471.528 208.322ZM470.38 218.529C472.091 218.529 473.169 217.088 473.169 214.803C473.169 212.529 472.091 211.064 470.38 211.064C468.704 211.064 467.603 212.553 467.603 214.803C467.603 217.076 468.704 218.529 470.38 218.529ZM485.778 208.322C488.966 208.322 490.923 210.748 490.923 214.803C490.923 218.846 488.978 221.283 485.837 221.283C484.009 221.283 482.603 220.393 481.935 218.975H481.864V225.186H478.443V208.521H481.818V210.713H481.888C482.568 209.236 483.962 208.322 485.778 208.322ZM484.63 218.529C486.341 218.529 487.419 217.088 487.419 214.803C487.419 212.529 486.341 211.064 484.63 211.064C482.954 211.064 481.853 212.553 481.853 214.803C481.853 217.076 482.954 218.529 484.63 218.529ZM492.775 221.084V204.174H496.196V221.084H492.775ZM500.263 206.822C499.267 206.822 498.482 206.025 498.482 205.064C498.482 204.092 499.267 203.307 500.263 203.307C501.259 203.307 502.044 204.092 502.044 205.064C502.044 206.025 501.259 206.822 500.263 206.822ZM498.564 221.084V208.521H501.985V221.084H498.564ZM515.685 213.197H512.509C512.31 211.873 511.431 210.936 510.025 210.936C508.337 210.936 507.282 212.365 507.282 214.791C507.282 217.264 508.337 218.67 510.036 218.67C511.407 218.67 512.298 217.85 512.509 216.479H515.696C515.521 219.443 513.306 221.354 510.001 221.354C506.216 221.354 503.814 218.893 503.814 214.791C503.814 210.76 506.216 208.252 509.978 208.252C513.376 208.252 515.532 210.35 515.685 213.197ZM521.075 221.283C518.685 221.283 516.868 219.736 516.868 217.475C516.868 215.189 518.626 213.865 521.755 213.678L524.919 213.49V212.658C524.919 211.486 524.099 210.807 522.81 210.807C521.532 210.807 520.724 211.439 520.56 212.365H517.431C517.56 209.928 519.634 208.252 522.962 208.252C526.185 208.252 528.282 209.916 528.282 212.447V221.084H524.978V219.162H524.907C524.204 220.498 522.646 221.283 521.075 221.283ZM522.2 218.811C523.689 218.811 524.919 217.838 524.919 216.479V215.564L522.271 215.729C520.993 215.822 520.267 216.396 520.267 217.287C520.267 218.225 521.04 218.811 522.2 218.811ZM531.411 205.627H534.833V208.521H537.153V211.1H534.833V217.111C534.833 218.072 535.302 218.529 536.31 218.529C536.614 218.529 536.931 218.506 537.142 218.471V220.99C536.79 221.072 536.204 221.131 535.513 221.131C532.56 221.131 531.411 220.146 531.411 217.697V211.1H529.642V208.521H531.411V205.627ZM540.786 206.822C539.79 206.822 539.005 206.025 539.005 205.064C539.005 204.092 539.79 203.307 540.786 203.307C541.782 203.307 542.568 204.092 542.568 205.064C542.568 206.025 541.782 206.822 540.786 206.822ZM539.087 221.084V208.521H542.509V221.084H539.087ZM550.56 221.354C546.763 221.354 544.337 218.916 544.337 214.791C544.337 210.725 546.798 208.252 550.56 208.252C554.321 208.252 556.782 210.713 556.782 214.791C556.782 218.928 554.357 221.354 550.56 221.354ZM550.56 218.74C552.235 218.74 553.302 217.322 553.302 214.803C553.302 212.307 552.224 210.865 550.56 210.865C548.896 210.865 547.806 212.307 547.806 214.803C547.806 217.322 548.872 218.74 550.56 218.74ZM558.552 221.084V208.521H561.857V210.76H561.927C562.595 209.201 563.919 208.287 565.853 208.287C568.642 208.287 570.212 210.045 570.212 212.986V221.084H566.79V213.701C566.79 212.061 566.017 211.123 564.482 211.123C562.946 211.123 561.974 212.248 561.974 213.877V221.084H558.552Z" fill="white"/>
</g>
<rect x="311.424" y="92.5299" width="327.808" height="439.335" rx="18.2846" stroke="url(#paint4_linear_2437_44199)" stroke-opacity="0.8" stroke-width="1.10816"/>
</g>
<rect x="128.502" y="73.4199" width="56.1661" height="56.1829" rx="8" fill="#2B303C"/>
<rect opacity="0.32" x="100.418" y="0.381836" width="56.1661" height="56.1829" rx="8" fill="#2B303C"/>
<rect opacity="0.2" x="196.837" y="110.875" width="56.1661" height="56.1829" rx="8" fill="#2B303C"/>
<path d="M228.206 136.645C228.583 137.022 228.583 137.634 228.206 138.011L223.058 143.161C222.681 143.538 222.069 143.538 221.692 143.161L219.118 140.586C218.741 140.209 218.741 139.597 219.118 139.22C219.495 138.843 220.106 138.843 220.483 139.22L222.375 141.113L226.841 136.645C227.218 136.268 227.829 136.268 228.206 136.645Z" fill="#1E222A"/>
<path fill-rule="evenodd" clip-rule="evenodd" d="M223.032 129.878C223.649 129.663 224.319 129.663 224.936 129.878L231.05 132.006C232.214 132.411 232.994 133.509 232.994 134.742V139.903C232.994 142.541 231.474 144.729 229.84 146.331C228.191 147.947 226.292 149.1 225.241 149.675C224.454 150.107 223.514 150.107 222.727 149.675C221.676 149.1 219.777 147.947 218.128 146.331C216.494 144.729 214.974 142.541 214.974 139.903V134.742C214.974 133.509 215.754 132.411 216.918 132.006L223.032 129.878ZM224.301 131.702C224.096 131.63 223.872 131.63 223.667 131.702L217.553 133.83C217.165 133.965 216.905 134.331 216.905 134.742V139.903C216.905 141.778 217.995 143.496 219.479 144.951C220.949 146.391 222.675 147.445 223.654 147.982C223.864 148.096 224.104 148.096 224.314 147.982C225.293 147.445 227.019 146.391 228.488 144.951C229.973 143.496 231.063 141.778 231.063 139.903V134.742C231.063 134.331 230.803 133.965 230.415 133.83L224.301 131.702Z" fill="#1E222A"/>
<g opacity="0.2" filter="url(#filter4_f_2437_44199)">
<rect x="264.236" y="146.457" width="56.1661" height="56.1829" rx="8" fill="#2B303C"/>
</g>
<path d="M138.799 22.9717L136.227 27.4303L133.655 22.9717H138.799Z" fill="#14C6CB"/>
<path d="M125.07 25.9484H123.354L127.643 33.3866L125.927 36.3619L118.204 22.9717H126.786L131.076 30.4114L131.933 28.9237L128.502 22.9717H131.933L133.651 25.9484L135.367 28.9237L131.076 36.3619L125.07 25.9484Z" fill="#14C6CB"/>
<g opacity="0.1" filter="url(#filter5_f_2437_44199)">
<rect x="72.3354" y="146.457" width="56.1661" height="56.1829" rx="8" fill="#2B303C"/>
</g>
<g opacity="0.1" filter="url(#filter6_f_2437_44199)">
<rect x="101.355" y="293.47" width="56.1661" height="56.1829" rx="8" fill="#2B303C"/>
</g>
<rect x="196.837" y="183.913" width="56.1661" height="56.1829" rx="8" fill="#2B303C"/>
<path d="M215.91 201.704V208.207L221.507 211.459V204.956L215.91 201.704Z" fill="#A067DA"/>
<path d="M227.72 208.585L222.121 205.334V211.837L227.72 215.089V208.585Z" fill="#A067DA"/>
<path d="M228.333 215.089V208.585L233.93 205.334V211.837L228.333 215.089Z" fill="#A067DA"/>
<path d="M227.718 222.305L222.121 219.052V212.549L227.718 215.802V222.305Z" fill="#A067DA"/>
<g opacity="0.8">
<rect opacity="0.4" x="196.837" y="37.8369" width="56.1661" height="56.1829" rx="8" fill="#2B303C"/>
<path d="M224.92 55.6279L215.91 60.778V71.0782L224.92 76.2283L233.93 71.0782V60.778L224.92 55.6279ZM228.934 66.9546L226.534 68.3274L223.634 66.7646V70.0464L220.907 71.7584V64.8963L223.071 63.5857L226.072 65.1521V61.8009L228.942 60.0979L228.934 66.9546Z" fill="#3EBF89"/>
</g>
<path d="M152.092 100.171C152.092 100.425 152.119 100.631 152.167 100.782C152.222 100.934 152.29 101.099 152.386 101.277C152.42 101.332 152.434 101.387 152.434 101.436C152.434 101.504 152.393 101.573 152.304 101.642L151.872 101.931C151.811 101.972 151.749 101.992 151.694 101.992C151.626 101.992 151.557 101.958 151.489 101.896C151.393 101.793 151.311 101.683 151.242 101.573C151.174 101.456 151.105 101.326 151.03 101.167C150.496 101.8 149.824 102.116 149.016 102.116C148.441 102.116 147.982 101.951 147.646 101.621C147.311 101.291 147.139 100.851 147.139 100.301C147.139 99.7169 147.345 99.2426 147.763 98.8851C148.181 98.5277 148.735 98.3489 149.441 98.3489C149.674 98.3489 149.913 98.3695 150.167 98.4039C150.42 98.4383 150.681 98.4933 150.955 98.5552V98.0533C150.955 97.5309 150.845 97.1665 150.633 96.9534C150.414 96.7403 150.044 96.6372 149.516 96.6372C149.276 96.6372 149.03 96.6647 148.776 96.7266C148.523 96.7884 148.276 96.864 148.037 96.9603C147.927 97.0084 147.845 97.0359 147.797 97.0497C147.749 97.0634 147.715 97.0703 147.687 97.0703C147.592 97.0703 147.544 97.0015 147.544 96.8572V96.5203C147.544 96.4103 147.557 96.3278 147.592 96.2797C147.626 96.2316 147.687 96.1835 147.783 96.1354C148.023 96.0116 148.311 95.9085 148.646 95.826C148.982 95.7366 149.338 95.6954 149.715 95.6954C150.53 95.6954 151.126 95.881 151.509 96.2522C151.886 96.6234 152.078 97.1871 152.078 97.9433V100.171H152.092ZM149.311 101.216C149.537 101.216 149.77 101.174 150.016 101.092C150.263 101.009 150.482 100.858 150.667 100.652C150.777 100.521 150.859 100.377 150.9 100.212C150.941 100.047 150.968 99.8475 150.968 99.6138V99.3251C150.77 99.277 150.557 99.2357 150.338 99.2082C150.119 99.1807 149.907 99.167 149.694 99.167C149.235 99.167 148.9 99.2563 148.674 99.442C148.448 99.6276 148.338 99.8888 148.338 100.233C148.338 100.556 148.42 100.796 148.592 100.961C148.756 101.133 148.996 101.216 149.311 101.216ZM154.811 101.958C154.688 101.958 154.605 101.937 154.551 101.889C154.496 101.848 154.448 101.752 154.407 101.621L152.797 96.3072C152.756 96.1697 152.735 96.0804 152.735 96.0322C152.735 95.9222 152.79 95.8604 152.9 95.8604H153.571C153.701 95.8604 153.79 95.881 153.838 95.9291C153.893 95.9704 153.934 96.0666 153.975 96.1972L155.126 100.748L156.194 96.1972C156.229 96.0597 156.27 95.9704 156.325 95.9291C156.379 95.8879 156.475 95.8604 156.599 95.8604H157.146C157.277 95.8604 157.366 95.881 157.42 95.9291C157.475 95.9704 157.523 96.0666 157.551 96.1972L158.633 100.803L159.818 96.1972C159.859 96.0597 159.907 95.9704 159.955 95.9291C160.01 95.8879 160.099 95.8604 160.222 95.8604H160.859C160.968 95.8604 161.03 95.9154 161.03 96.0322C161.03 96.0666 161.023 96.101 161.016 96.1422C161.01 96.1835 160.996 96.2385 160.968 96.3141L159.318 101.628C159.277 101.766 159.229 101.855 159.174 101.896C159.119 101.937 159.03 101.965 158.914 101.965H158.325C158.194 101.965 158.105 101.944 158.051 101.896C157.996 101.848 157.948 101.759 157.92 101.621L156.859 97.1871L155.804 101.614C155.77 101.752 155.729 101.841 155.674 101.889C155.619 101.937 155.523 101.958 155.4 101.958H154.811ZM163.612 102.144C163.256 102.144 162.9 102.102 162.558 102.02C162.215 101.937 161.948 101.848 161.77 101.745C161.66 101.683 161.585 101.614 161.558 101.552C161.53 101.491 161.516 101.422 161.516 101.36V101.009C161.516 100.865 161.571 100.796 161.674 100.796C161.715 100.796 161.756 100.803 161.797 100.817C161.838 100.831 161.9 100.858 161.968 100.886C162.201 100.989 162.455 101.071 162.722 101.126C162.996 101.181 163.263 101.209 163.537 101.209C163.969 101.209 164.304 101.133 164.537 100.982C164.77 100.831 164.893 100.611 164.893 100.329C164.893 100.136 164.832 99.9782 164.708 99.8475C164.585 99.7169 164.352 99.6001 164.016 99.4901L163.023 99.1807C162.523 99.0226 162.153 98.7889 161.927 98.4795C161.701 98.1771 161.585 97.8402 161.585 97.4827C161.585 97.194 161.647 96.9397 161.77 96.7197C161.893 96.4997 162.058 96.3072 162.263 96.156C162.469 95.9979 162.701 95.881 162.975 95.7985C163.249 95.716 163.537 95.6816 163.838 95.6816C163.989 95.6816 164.147 95.6885 164.297 95.7091C164.455 95.7298 164.599 95.7573 164.743 95.7848C164.88 95.8191 165.01 95.8535 165.133 95.8947C165.256 95.936 165.352 95.9772 165.421 96.0185C165.516 96.0735 165.585 96.1285 165.626 96.1903C165.667 96.2453 165.688 96.321 165.688 96.4172V96.7403C165.688 96.8847 165.633 96.9603 165.53 96.9603C165.475 96.9603 165.386 96.9328 165.27 96.8778C164.88 96.6991 164.441 96.6097 163.955 96.6097C163.564 96.6097 163.256 96.6716 163.044 96.8022C162.832 96.9328 162.722 97.1321 162.722 97.414C162.722 97.6065 162.79 97.7715 162.927 97.9021C163.064 98.0327 163.318 98.1633 163.681 98.2802L164.653 98.5895C165.147 98.7476 165.503 98.9676 165.715 99.2495C165.927 99.5313 166.03 99.8544 166.03 100.212C166.03 100.507 165.969 100.776 165.852 101.009C165.729 101.243 165.564 101.449 165.352 101.614C165.14 101.786 164.886 101.91 164.592 101.999C164.284 102.095 163.962 102.144 163.612 102.144Z" fill="#616875"/>
<path fill-rule="evenodd" clip-rule="evenodd" d="M164.906 105.483C162.653 107.154 159.379 108.041 156.564 108.041C152.619 108.041 149.064 106.576 146.379 104.143C146.166 103.95 146.358 103.689 146.612 103.84C149.516 105.532 153.098 106.556 156.804 106.556C159.304 106.556 162.05 106.033 164.578 104.961C164.954 104.789 165.276 105.208 164.906 105.483Z" fill="#616875"/>
<path fill-rule="evenodd" clip-rule="evenodd" d="M165.845 104.412C165.557 104.041 163.941 104.233 163.208 104.323C162.989 104.35 162.954 104.158 163.153 104.013C164.441 103.106 166.557 103.367 166.804 103.67C167.05 103.979 166.735 106.103 165.53 107.121C165.345 107.279 165.167 107.196 165.249 106.99C165.523 106.31 166.133 104.777 165.845 104.412Z" fill="#616875"/>
<rect opacity="0.9" x="264.236" y="219.495" width="56.1661" height="56.1829" rx="8" fill="#2B303C"/>
<path d="M282.022 239.159L292.282 259.136L302.617 239.159H282.022ZM290.687 247.089H289.052V245.454H290.687V247.089ZM290.687 244.636H289.052V243.003H290.687V244.636ZM293.138 249.541H291.503V247.906H293.138V249.541ZM293.138 247.089H291.503V245.454H293.138V247.089ZM293.138 244.636H291.503V243.003H293.138V244.636ZM295.576 247.089H293.941V245.454H295.576V247.089ZM293.941 244.636V243.003H295.576V244.636H293.941Z" fill="#FFDD04"/>
<rect x="128.502" y="219.495" width="56.1661" height="56.1829" rx="8" fill="#2B303C"/>
<path d="M152.479 256.599V255.201H155.374V254.338H153.97V252.932H160.598L157.519 247.586L160.598 242.238H153.805V249.654H150.149V238.573H162.731L164.83 242.22L161.742 247.586L164.893 253.06L162.855 256.599H152.479Z" fill="#F2474C"/>
<path d="M153.042 252.932H151.64V254.338H153.042V252.932Z" fill="#F2474C"/>
<path d="M150.149 255.191H151.551V256.597H150.149V255.191Z" fill="#F2474C"/>
<g filter="url(#filter7_f_2437_44199)">
<rect opacity="0.2" x="196.837" y="256.95" width="56.1661" height="56.1829" rx="8" fill="#2B303C"/>
<path d="M215.91 276.965H224.276V285.334H215.91V276.965Z" fill="#2B303C"/>
<path d="M225.564 276.965H233.93V285.334H225.564V276.965Z" fill="#2B303C"/>
<path d="M215.91 286.621H224.276V294.99H215.91V286.621Z" fill="#2B303C"/>
<path d="M225.564 286.621H233.93V294.99H225.564V286.621Z" fill="#2B303C"/>
</g>
<rect opacity="0.8" x="196.837" y="329.988" width="56.1661" height="56.1829" rx="8" fill="#2B303C"/>
<path d="M220.72 366.052C222.017 366.736 223.461 367.093 224.927 367.092C227.186 367.094 229.362 366.245 231.023 364.714L228.885 362.477C228.035 363.245 226.98 363.75 225.849 363.93C224.718 364.111 223.559 363.96 222.512 363.494C221.465 363.029 220.575 362.27 219.951 361.309C219.327 360.349 218.995 359.227 218.995 358.082C218.995 356.936 219.327 355.814 219.951 354.854C220.575 353.893 221.465 353.134 222.512 352.669C223.559 352.204 224.718 352.052 225.849 352.233C226.98 352.413 228.035 352.918 228.885 353.686L231.023 351.449C229.944 350.455 228.639 349.74 227.222 349.365C225.804 348.991 224.317 348.968 222.888 349.299C221.46 349.629 220.133 350.304 219.025 351.264C217.916 352.223 217.058 353.439 216.525 354.806C215.993 356.173 215.802 357.649 215.969 359.106C216.136 360.563 216.656 361.957 217.484 363.168C218.312 364.378 219.422 365.369 220.72 366.052Z" fill="#ED3B7C"/>
<path d="M231.767 362.459C231.889 362.54 232.032 362.584 232.178 362.584C232.373 362.583 232.561 362.505 232.699 362.367C232.838 362.228 232.916 362.041 232.916 361.845C232.916 361.699 232.873 361.556 232.792 361.435C232.711 361.313 232.595 361.218 232.46 361.163C232.325 361.107 232.177 361.092 232.034 361.121C231.89 361.149 231.759 361.219 231.655 361.323C231.552 361.426 231.482 361.558 231.453 361.701C231.425 361.844 231.439 361.993 231.495 362.128C231.551 362.263 231.646 362.378 231.767 362.459Z" fill="#ED3B7C"/>
<path d="M224.87 360.032C224.483 360.034 224.105 359.92 223.783 359.707C223.461 359.493 223.209 359.189 223.06 358.832C222.911 358.475 222.871 358.082 222.946 357.703C223.02 357.323 223.206 356.974 223.479 356.701C223.752 356.427 224.1 356.24 224.479 356.164C224.858 356.088 225.251 356.127 225.608 356.275C225.965 356.422 226.27 356.673 226.485 356.994C226.7 357.316 226.814 357.694 226.814 358.081C226.813 358.597 226.608 359.092 226.244 359.457C225.88 359.823 225.386 360.029 224.87 360.032Z" fill="#ED3B7C"/>
<path d="M232.614 359.942C232.736 360.023 232.879 360.067 233.025 360.067C233.22 360.066 233.408 359.988 233.546 359.85C233.685 359.711 233.763 359.524 233.763 359.328C233.763 359.182 233.72 359.039 233.639 358.917C233.558 358.796 233.442 358.701 233.307 358.645C233.172 358.589 233.024 358.575 232.881 358.603C232.737 358.632 232.606 358.702 232.502 358.805C232.399 358.909 232.329 359.04 232.3 359.184C232.272 359.327 232.286 359.476 232.342 359.611C232.398 359.746 232.493 359.861 232.614 359.942Z" fill="#ED3B7C"/>
<path d="M230.829 359.974C230.682 359.974 230.539 359.931 230.418 359.849C230.296 359.768 230.201 359.652 230.146 359.516C230.09 359.381 230.076 359.232 230.105 359.089C230.134 358.945 230.206 358.813 230.31 358.71C230.414 358.607 230.546 358.538 230.69 358.51C230.834 358.483 230.982 358.498 231.117 358.556C231.252 358.613 231.367 358.709 231.447 358.831C231.527 358.954 231.569 359.097 231.567 359.244C231.565 359.438 231.486 359.624 231.348 359.761C231.21 359.898 231.023 359.974 230.829 359.974Z" fill="#ED3B7C"/>
<path d="M232.614 357.453C232.736 357.534 232.879 357.577 233.025 357.577C233.22 357.577 233.408 357.499 233.546 357.36C233.685 357.222 233.763 357.034 233.763 356.839C233.763 356.692 233.72 356.55 233.639 356.428C233.558 356.307 233.442 356.212 233.307 356.156C233.172 356.1 233.024 356.086 232.881 356.114C232.737 356.143 232.606 356.213 232.502 356.316C232.399 356.419 232.329 356.551 232.3 356.694C232.272 356.838 232.286 356.986 232.342 357.121C232.398 357.256 232.493 357.372 232.614 357.453Z" fill="#ED3B7C"/>
<path d="M230.829 357.661C230.683 357.661 230.54 357.618 230.419 357.537C230.297 357.456 230.202 357.34 230.147 357.205C230.091 357.07 230.076 356.922 230.105 356.778C230.133 356.635 230.203 356.503 230.307 356.4C230.41 356.297 230.542 356.226 230.685 356.198C230.828 356.169 230.977 356.184 231.111 356.24C231.246 356.296 231.362 356.391 231.443 356.512C231.524 356.634 231.567 356.776 231.567 356.922C231.567 357.118 231.49 357.306 231.351 357.445C231.213 357.583 231.025 357.661 230.829 357.661Z" fill="#ED3B7C"/>
<path d="M231.81 354.969C231.931 355.05 232.074 355.093 232.22 355.093C232.416 355.093 232.603 355.015 232.742 354.876C232.88 354.738 232.957 354.55 232.957 354.354C232.957 354.208 232.914 354.065 232.833 353.944C232.751 353.822 232.636 353.727 232.501 353.672C232.366 353.616 232.217 353.601 232.074 353.63C231.931 353.658 231.799 353.729 231.696 353.832C231.593 353.936 231.523 354.068 231.494 354.211C231.466 354.355 231.481 354.503 231.537 354.638C231.593 354.773 231.688 354.888 231.81 354.969Z" fill="#ED3B7C"/>
<g opacity="0.8">
<rect opacity="0.5" x="128.502" y="365.57" width="56.1661" height="56.1829" rx="8" fill="#2B303C"/>
<path d="M152.933 383.361L160.349 387.542C161.814 388.373 163.019 390.226 163.02 391.662V398.053C163.02 399.497 161.819 399.985 160.351 399.156L157.978 397.822V389.114L152.933 386.261V383.361Z" fill="#32B8F2"/>
<path d="M156.971 389.738L150.149 385.879V400.103L156.971 403.962V389.738Z" fill="#32B8F2"/>
</g>
<g opacity="0.05" filter="url(#filter8_bd_2437_44199)">
<rect x="414" y="266" width="230" height="291" rx="9.55753" fill="url(#paint5_linear_2437_44199)" fill-opacity="0.15" shape-rendering="crispEdges"/>
<rect x="414" y="266" width="230" height="291" rx="9.55753" fill="url(#paint6_linear_2437_44199)" shape-rendering="crispEdges"/>
<rect x="414.5" y="266.5" width="229" height="290" rx="9.05753" stroke="url(#paint7_linear_2437_44199)" shape-rendering="crispEdges"/>
</g>
<path d="M461.38 444.105V447.704H460.206V437.891H461.38V438.798C461.575 438.447 461.833 438.181 462.155 437.999C462.481 437.812 462.855 437.719 463.278 437.719C464.137 437.719 464.81 438.051 465.297 438.716C465.788 439.38 466.033 440.301 466.033 441.477C466.033 442.632 465.788 443.54 465.297 444.2C464.806 444.856 464.133 445.184 463.278 445.184C462.847 445.184 462.468 445.093 462.142 444.911C461.82 444.725 461.567 444.456 461.38 444.105ZM464.808 441.452C464.808 440.546 464.664 439.863 464.376 439.401C464.093 438.94 463.67 438.709 463.107 438.709C462.54 438.709 462.11 438.942 461.818 439.408C461.526 439.869 461.38 440.55 461.38 441.452C461.38 442.349 461.526 443.03 461.818 443.496C462.11 443.961 462.54 444.194 463.107 444.194C463.67 444.194 464.093 443.963 464.376 443.502C464.664 443.041 464.808 442.357 464.808 441.452ZM474.165 439.357C473.915 439.162 473.661 439.021 473.403 438.932C473.145 438.843 472.861 438.798 472.552 438.798C471.824 438.798 471.268 439.027 470.883 439.484C470.498 439.941 470.305 440.601 470.305 441.464V445H469.131V437.891H470.305V439.281C470.5 438.777 470.798 438.392 471.2 438.125C471.606 437.855 472.087 437.719 472.641 437.719C472.929 437.719 473.198 437.755 473.447 437.827C473.697 437.899 473.936 438.011 474.165 438.164V439.357ZM478.576 438.709C477.984 438.709 477.535 438.94 477.23 439.401C476.926 439.863 476.773 440.546 476.773 441.452C476.773 442.353 476.926 443.036 477.23 443.502C477.535 443.963 477.984 444.194 478.576 444.194C479.173 444.194 479.624 443.963 479.928 443.502C480.233 443.036 480.385 442.353 480.385 441.452C480.385 440.546 480.233 439.863 479.928 439.401C479.624 438.94 479.173 438.709 478.576 438.709ZM478.576 437.719C479.562 437.719 480.315 438.039 480.836 438.678C481.361 439.317 481.623 440.241 481.623 441.452C481.623 442.666 481.363 443.593 480.842 444.232C480.322 444.867 479.566 445.184 478.576 445.184C477.59 445.184 476.837 444.867 476.316 444.232C475.796 443.593 475.536 442.666 475.536 441.452C475.536 440.241 475.796 439.317 476.316 438.678C476.837 438.039 477.59 437.719 478.576 437.719ZM489.247 435.123V436.094H487.92C487.501 436.094 487.209 436.181 487.044 436.354C486.883 436.524 486.803 436.826 486.803 437.262V437.891H489.247V438.798H486.803V445H485.635V438.798H483.737V437.891H485.635V437.396C485.635 436.617 485.812 436.043 486.168 435.675C486.528 435.307 487.086 435.123 487.844 435.123H489.247ZM492.338 437.916H495.328V444.092H497.645V445H491.843V444.092H494.16V438.824H492.338V437.916ZM494.16 435.155H495.328V436.627H494.16V435.155ZM502.729 442.429C502.729 442.954 502.824 443.35 503.015 443.616C503.209 443.883 503.495 444.016 503.872 444.016H505.236V445H503.757C503.059 445 502.517 444.778 502.132 444.333C501.751 443.885 501.561 443.25 501.561 442.429V435.999H499.688V435.085H502.729V442.429ZM513.107 440.861V441.433H508.048V441.471C508.014 442.44 508.199 443.136 508.601 443.559C509.007 443.982 509.578 444.194 510.314 444.194C510.687 444.194 511.076 444.135 511.482 444.016C511.889 443.898 512.322 443.718 512.784 443.477V444.638C512.339 444.82 511.91 444.956 511.495 445.044C511.085 445.138 510.687 445.184 510.302 445.184C509.197 445.184 508.334 444.854 507.712 444.194C507.09 443.529 506.779 442.615 506.779 441.452C506.779 440.318 507.083 439.412 507.693 438.735C508.302 438.058 509.115 437.719 510.13 437.719C511.036 437.719 511.749 438.026 512.27 438.64C512.794 439.253 513.074 439.994 513.107 440.861ZM511.939 440.519C511.889 440.028 511.709 439.604 511.4 439.249C511.095 438.889 510.655 438.709 510.08 438.709C509.517 438.709 509.053 438.896 508.689 439.268C508.326 439.64 508.127 440.059 508.093 440.525L511.939 440.519ZM514.479 440.404H521.207V441.477H514.479V440.404ZM526.12 441.426H525.733C525.052 441.426 524.537 441.547 524.19 441.788C523.848 442.025 523.676 442.381 523.676 442.854C523.676 443.282 523.805 443.614 524.063 443.851C524.322 444.088 524.679 444.207 525.136 444.207C525.779 444.207 526.285 443.984 526.653 443.54C527.021 443.091 527.208 442.474 527.212 441.687V441.426H526.12ZM528.386 440.944V445H527.212V443.946C526.962 444.369 526.647 444.683 526.266 444.886C525.889 445.085 525.43 445.184 524.889 445.184C524.165 445.184 523.587 444.981 523.156 444.575C522.724 444.164 522.508 443.616 522.508 442.931C522.508 442.139 522.773 441.538 523.302 441.128C523.835 440.717 524.616 440.512 525.644 440.512H527.212V440.328C527.208 439.761 527.064 439.351 526.78 439.097C526.497 438.839 526.044 438.709 525.422 438.709C525.024 438.709 524.622 438.767 524.216 438.881C523.81 438.995 523.414 439.162 523.029 439.382V438.214C523.46 438.049 523.873 437.927 524.267 437.846C524.664 437.762 525.049 437.719 525.422 437.719C526.01 437.719 526.512 437.806 526.926 437.979C527.345 438.153 527.684 438.413 527.942 438.76C528.103 438.972 528.217 439.234 528.285 439.547C528.352 439.856 528.386 440.322 528.386 440.944ZM531.877 444.105V447.704H530.703V437.891H531.877V438.798C532.072 438.447 532.33 438.181 532.652 437.999C532.978 437.812 533.352 437.719 533.775 437.719C534.634 437.719 535.307 438.051 535.794 438.716C536.285 439.38 536.53 440.301 536.53 441.477C536.53 442.632 536.285 443.54 535.794 444.2C535.303 444.856 534.63 445.184 533.775 445.184C533.344 445.184 532.965 445.093 532.639 444.911C532.318 444.725 532.064 444.456 531.877 444.105ZM535.305 441.452C535.305 440.546 535.161 439.863 534.874 439.401C534.59 438.94 534.167 438.709 533.604 438.709C533.037 438.709 532.607 438.942 532.315 439.408C532.023 439.869 531.877 440.55 531.877 441.452C531.877 442.349 532.023 443.03 532.315 443.496C532.607 443.961 533.037 444.194 533.604 444.194C534.167 444.194 534.59 443.963 534.874 443.502C535.161 443.041 535.305 442.357 535.305 441.452ZM539.336 437.916H542.326V444.092H544.643V445H538.841V444.092H541.158V438.824H539.336V437.916ZM541.158 435.155H542.326V436.627H541.158V435.155Z" fill="#616875"/>
<g clip-path="url(#clip4_2437_44199)">
<line x1="451.5" y1="325.5" x2="722.5" y2="325.5" stroke="#656A76" stroke-opacity="0.2" stroke-linecap="round"/>
<g clip-path="url(#clip5_2437_44199)">
<path d="M468.476 303.896C471.312 303.896 473.076 305.893 473.076 309.064C473.076 312.229 471.326 314.239 468.476 314.239C465.604 314.239 463.868 312.236 463.868 309.064C463.868 305.886 465.646 303.896 468.476 303.896ZM468.476 305.25C466.609 305.25 465.434 306.727 465.434 309.064C465.434 311.382 466.575 312.886 468.476 312.886C470.349 312.886 471.511 311.382 471.511 309.064C471.511 306.727 470.342 305.25 468.476 305.25ZM481.286 306.576L478.606 314H477.027L474.341 306.576H475.913L477.766 312.496H477.882L479.728 306.576H481.286ZM487.37 312.011H488.785C488.464 313.323 487.261 314.144 485.559 314.144C483.426 314.144 482.12 312.674 482.12 310.302C482.12 307.943 483.453 306.433 485.552 306.433C487.623 306.433 488.874 307.848 488.874 310.172V310.678H483.617V310.746C483.665 312.093 484.424 312.94 485.6 312.94C486.488 312.94 487.097 312.612 487.37 312.011ZM485.545 307.629C484.458 307.629 483.699 308.422 483.617 309.618H487.377C487.343 308.415 486.632 307.629 485.545 307.629ZM490.638 314V306.576H492.053V307.704H492.162C492.374 306.973 493.201 306.446 494.172 306.446C494.391 306.446 494.671 306.467 494.828 306.501V307.882C494.705 307.848 494.268 307.8 494.008 307.8C492.894 307.8 492.107 308.518 492.107 309.563V314H490.638ZM502.587 306.576L499.907 314H498.328L495.642 306.576H497.214L499.066 312.496H499.183L501.028 306.576H502.587ZM504.836 305.25C504.323 305.25 503.906 304.833 503.906 304.327C503.906 303.814 504.323 303.397 504.836 303.397C505.349 303.397 505.766 303.814 505.766 304.327C505.766 304.833 505.349 305.25 504.836 305.25ZM504.104 314V306.576H505.567V314H504.104ZM512.608 312.011H514.023C513.702 313.323 512.499 314.144 510.797 314.144C508.664 314.144 507.358 312.674 507.358 310.302C507.358 307.943 508.691 306.433 510.79 306.433C512.861 306.433 514.112 307.848 514.112 310.172V310.678H508.855V310.746C508.903 312.093 509.662 312.94 510.838 312.94C511.727 312.94 512.335 312.612 512.608 312.011ZM510.783 307.629C509.696 307.629 508.938 308.422 508.855 309.618H512.615C512.581 308.415 511.87 307.629 510.783 307.629ZM525.515 306.576L523.471 314H521.946L520.408 308.463H520.292L518.761 314H517.25L515.199 306.576H516.689L518.022 312.305H518.132L519.663 306.576H521.071L522.603 312.305H522.719L524.045 306.576H525.515Z" fill="#EFEFF1"/>
<rect x="451" y="324" width="87" height="3" rx="1.5" fill="#EFEFF1"/>
<path d="M550.98 311.368H552.498C552.628 312.325 553.544 312.934 554.863 312.934C556.094 312.934 556.996 312.284 556.996 311.382C556.996 310.609 556.422 310.131 555.116 309.816L553.845 309.509C552.061 309.078 551.247 308.23 551.247 306.795C551.247 305.059 552.683 303.896 554.836 303.896C556.839 303.896 558.302 305.059 558.391 306.706H556.9C556.757 305.77 555.964 305.195 554.815 305.195C553.605 305.195 552.799 305.79 552.799 306.713C552.799 307.431 553.318 307.841 554.604 308.155L555.69 308.422C557.714 308.907 558.548 309.721 558.548 311.197C558.548 313.063 557.085 314.239 554.747 314.239C552.56 314.239 551.09 313.118 550.98 311.368ZM565.274 312.011H566.689C566.368 313.323 565.165 314.144 563.463 314.144C561.33 314.144 560.024 312.674 560.024 310.302C560.024 307.943 561.357 306.433 563.456 306.433C565.527 306.433 566.778 307.848 566.778 310.172V310.678H561.521V310.746C561.569 312.093 562.328 312.94 563.504 312.94C564.393 312.94 565.001 312.612 565.274 312.011ZM563.449 307.629C562.362 307.629 561.604 308.422 561.521 309.618H565.281C565.247 308.415 564.536 307.629 563.449 307.629ZM574.845 308.962H573.416C573.245 308.237 572.644 307.684 571.659 307.684C570.429 307.684 569.677 308.654 569.677 310.261C569.677 311.901 570.436 312.893 571.659 312.893C572.589 312.893 573.225 312.455 573.416 311.648H574.845C574.653 313.111 573.505 314.144 571.666 314.144C569.499 314.144 568.173 312.667 568.173 310.261C568.173 307.902 569.492 306.433 571.659 306.433C573.525 306.433 574.653 307.52 574.845 308.962ZM576.526 314V306.576H577.941V307.704H578.051C578.263 306.973 579.09 306.446 580.061 306.446C580.279 306.446 580.56 306.467 580.717 306.501V307.882C580.594 307.848 580.156 307.8 579.896 307.8C578.782 307.8 577.996 308.518 577.996 309.563V314H576.526ZM586.821 312.011H588.236C587.915 313.323 586.712 314.144 585.01 314.144C582.877 314.144 581.571 312.674 581.571 310.302C581.571 307.943 582.904 306.433 585.003 306.433C587.074 306.433 588.325 307.848 588.325 310.172V310.678H583.068V310.746C583.116 312.093 583.875 312.94 585.051 312.94C585.939 312.94 586.548 312.612 586.821 312.011ZM584.996 307.629C583.909 307.629 583.15 308.422 583.068 309.618H586.828C586.794 308.415 586.083 307.629 584.996 307.629ZM590.608 304.703H592.078V306.597H593.691V307.772H592.078V311.689C592.078 312.489 592.399 312.838 593.131 312.838C593.356 312.838 593.486 312.824 593.691 312.804V313.973C593.452 314.014 593.179 314.048 592.892 314.048C591.258 314.048 590.608 313.474 590.608 312.045V307.772H589.426V306.597H590.608V304.703ZM595.141 308.654C595.141 307.362 596.351 306.433 598.032 306.433C599.707 306.433 600.801 307.212 600.944 308.497H599.536C599.399 307.943 598.866 307.581 598.032 307.581C597.212 307.581 596.59 307.984 596.59 308.586C596.59 309.044 596.966 309.331 597.772 309.522L599.01 309.81C600.425 310.138 601.088 310.746 601.088 311.826C601.088 313.207 599.782 314.144 598.005 314.144C596.234 314.144 595.079 313.344 594.949 312.052H596.419C596.604 312.633 597.15 312.995 598.039 312.995C598.955 312.995 599.604 312.571 599.604 311.963C599.604 311.498 599.256 311.197 598.511 311.02L597.212 310.712C595.797 310.384 595.141 309.755 595.141 308.654Z" fill="#D5D7DB"/>
</g>
</g>
<g style="mix-blend-mode:overlay" opacity="0.69">
<rect x="451" y="355" width="546" height="47" rx="6" fill="url(#paint8_linear_2437_44199)"/>
</g>
<path fill-rule="evenodd" clip-rule="evenodd" d="M472.25 373C469.351 373 467 375.351 467 378.25C467 381.149 469.351 383.5 472.25 383.5C473.429 383.5 474.518 383.111 475.394 382.455L477.72 384.78C478.013 385.073 478.487 385.073 478.78 384.78C479.073 384.487 479.073 384.013 478.78 383.72L476.455 381.394C477.111 380.518 477.5 379.429 477.5 378.25C477.5 375.351 475.149 373 472.25 373ZM468.5 378.25C468.5 376.179 470.179 374.5 472.25 374.5C474.321 374.5 476 376.179 476 378.25C476 380.321 474.321 382 472.25 382C470.179 382 468.5 380.321 468.5 378.25Z" fill="#46516C"/>
<path d="M498.83 385.105C496.745 385.105 494.69 384.01 494.525 381.76H496.385C496.64 382.87 497.465 383.545 498.83 383.545C500.135 383.545 500.84 382.72 500.84 381.97C500.84 381.175 500.345 380.65 498.92 380.5C495.845 380.17 494.81 378.895 494.81 377.485C494.81 375.79 496.385 374.41 498.56 374.41C500.93 374.41 502.4 375.67 502.49 377.74H500.72C500.645 376.645 499.685 376.03 498.545 376.03C497.315 376.03 496.685 376.765 496.685 377.425C496.685 378.25 497.525 378.745 498.815 378.895C501.83 379.24 502.715 380.47 502.715 381.985C502.715 383.905 501.08 385.105 498.83 385.105ZM507.308 385.165C505.118 385.165 503.693 383.725 503.693 381.31C503.693 378.985 505.133 377.41 507.263 377.41C509.573 377.41 510.833 379.315 510.653 381.79H505.343V381.805C505.343 383.035 506.123 383.785 507.308 383.785C507.788 383.785 508.688 383.62 509.033 382.63H510.533C510.308 384.1 509.108 385.165 507.308 385.165ZM505.388 380.395H508.973C508.928 379.45 508.223 378.79 507.218 378.79C506.213 378.79 505.448 379.45 505.388 380.395ZM514.109 385.15C512.774 385.15 511.574 384.325 511.574 382.885C511.574 382.24 511.769 381.655 512.234 381.28C512.729 380.89 513.449 380.68 514.304 380.605C515.264 380.515 516.329 380.455 516.329 379.675C516.329 379.195 515.864 378.775 515.099 378.775C514.049 378.775 513.599 379.435 513.524 379.99L511.844 380.005C511.979 378.505 513.194 377.32 515.024 377.32C516.929 377.32 517.994 378.445 517.994 379.93V385H516.329V384.115C515.789 384.805 514.904 385.15 514.109 385.15ZM514.379 383.77C515.204 383.815 516.299 383.32 516.329 382.135L516.344 381.46C516.014 381.64 515.339 381.745 514.604 381.805C513.779 381.88 513.299 382.195 513.299 382.78C513.299 383.305 513.689 383.725 514.379 383.77ZM519.789 385V377.5H521.334V378.415C521.484 378.13 522.009 377.38 523.434 377.38H523.779V379.045H523.524C522.504 379.03 521.334 379.36 521.334 381.205V385H519.789ZM527.684 385.105C525.569 385.105 524.084 383.515 524.084 381.25C524.084 378.97 525.599 377.35 527.744 377.35C529.484 377.35 530.849 378.46 531.044 380.035H529.364C529.199 379.36 528.629 378.715 527.684 378.715C526.634 378.715 525.779 379.615 525.779 381.145C525.779 382.75 526.634 383.695 527.714 383.695C528.674 383.695 529.229 383.05 529.364 382.375H531.044C530.834 383.98 529.439 385.105 527.684 385.105ZM532.49 385V374.5H534.08V378.445C534.365 378.04 535.115 377.305 536.33 377.305C537.365 377.305 539.165 377.86 539.165 380.395V385H537.44V380.575C537.44 379.255 536.795 378.73 535.955 378.73C534.965 378.73 534.08 379.675 534.08 381.22V385H532.49ZM549.148 385.165C547.828 385.165 546.973 384.37 546.763 383.965V385H545.248V374.5H546.763V378.565C547.168 378.01 547.933 377.425 549.193 377.425C550.858 377.425 552.583 378.745 552.583 381.295C552.583 383.89 550.723 385.165 549.148 385.165ZM548.848 383.68C550.048 383.68 550.888 382.645 550.888 381.19C550.888 379.84 550.048 378.88 548.848 378.88C547.633 378.88 546.778 379.9 546.778 381.34C546.778 382.705 547.633 383.68 548.848 383.68ZM553.427 388L553.412 386.545H554.147C554.762 386.545 555.197 386.2 555.467 385.495L555.812 384.535L552.887 377.5H554.612L556.637 382.63L558.512 377.5H560.237L556.997 385.915C556.442 387.31 555.587 388 554.312 388H553.427ZM565.126 385V377.5H566.716V378.445C567.001 378.04 567.751 377.305 568.966 377.305C570.001 377.305 571.801 377.86 571.801 380.395V385H570.076V380.575C570.076 379.255 569.431 378.73 568.591 378.73C567.601 378.73 566.716 379.675 566.716 381.22V385H565.126ZM575.691 385.15C574.356 385.15 573.156 384.325 573.156 382.885C573.156 382.24 573.351 381.655 573.816 381.28C574.311 380.89 575.031 380.68 575.886 380.605C576.846 380.515 577.911 380.455 577.911 379.675C577.911 379.195 577.446 378.775 576.681 378.775C575.631 378.775 575.181 379.435 575.106 379.99L573.426 380.005C573.561 378.505 574.776 377.32 576.606 377.32C578.511 377.32 579.576 378.445 579.576 379.93V385H577.911V384.115C577.371 384.805 576.486 385.15 575.691 385.15ZM575.961 383.77C576.786 383.815 577.881 383.32 577.911 382.135L577.926 381.46C577.596 381.64 576.921 381.745 576.186 381.805C575.361 381.88 574.881 382.195 574.881 382.78C574.881 383.305 575.271 383.725 575.961 383.77ZM581.371 385V377.5H582.961V378.445C583.246 378.04 583.846 377.305 585.061 377.305C585.226 377.305 586.606 377.215 587.476 378.73C587.971 377.89 588.811 377.305 589.951 377.305C590.986 377.305 592.831 377.86 592.831 380.395V385H591.106V380.575C591.106 379.255 590.461 378.73 589.621 378.73C588.631 378.73 587.896 379.675 587.896 381.22V385H586.171V380.575C586.171 379.255 585.526 378.73 584.686 378.73C583.696 378.73 582.961 379.675 582.961 381.22V385H581.371ZM597.792 385.165C595.602 385.165 594.177 383.725 594.177 381.31C594.177 378.985 595.617 377.41 597.747 377.41C600.057 377.41 601.317 379.315 601.137 381.79H595.827V381.805C595.827 383.035 596.607 383.785 597.792 383.785C598.272 383.785 599.172 383.62 599.517 382.63H601.017C600.792 384.1 599.592 385.165 597.792 385.165ZM595.872 380.395H599.457C599.412 379.45 598.707 378.79 597.702 378.79C596.697 378.79 595.932 379.45 595.872 380.395ZM609.306 385.075C607.266 385.075 605.676 383.485 605.676 381.25C605.676 378.985 607.266 377.395 609.306 377.395C611.331 377.395 612.921 378.985 612.921 381.25C612.921 383.485 611.331 385.075 609.306 385.075ZM609.291 383.59C610.611 383.59 611.346 382.585 611.346 381.265C611.346 379.915 610.611 378.895 609.306 378.895C608.016 378.895 607.281 379.9 607.281 381.25C607.281 382.57 608.001 383.59 609.291 383.59ZM614.345 385V377.5H615.89V378.415C616.04 378.13 616.565 377.38 617.99 377.38H618.335V379.045H618.08C617.06 379.03 615.89 379.36 615.89 381.205V385H614.345ZM625.678 385.165C624.103 385.165 622.243 383.89 622.243 381.295C622.243 378.745 623.968 377.425 625.633 377.425C626.893 377.425 627.658 378.01 628.063 378.565V374.5H629.578V385H628.063V383.965C627.853 384.37 626.998 385.165 625.678 385.165ZM625.978 383.68C627.193 383.68 628.048 382.705 628.048 381.34C628.048 379.9 627.193 378.88 625.978 378.88C624.778 378.88 623.938 379.84 623.938 381.19C623.938 382.645 624.778 383.68 625.978 383.68ZM634.618 385.165C632.428 385.165 631.003 383.725 631.003 381.31C631.003 378.985 632.443 377.41 634.573 377.41C636.883 377.41 638.143 379.315 637.963 381.79H632.653V381.805C632.653 383.035 633.433 383.785 634.618 383.785C635.098 383.785 635.998 383.62 636.343 382.63H637.843C637.618 384.1 636.418 385.165 634.618 385.165ZM632.698 380.395H636.283C636.238 379.45 635.533 378.79 634.528 378.79C633.523 378.79 632.758 379.45 632.698 380.395ZM639.604 385V378.85H638.434V377.5H639.604V376.495C639.604 375.325 640.459 374.5 641.659 374.5H643.084L643.099 375.91H642.079C641.359 375.91 641.164 376.15 641.164 376.9V377.5H643.084V378.85H641.164V385H639.604Z" fill="#46516C"/>
<rect x="297" y="444" width="333" height="65" fill="url(#paint9_linear_2437_44199)"/>
<rect x="476" y="506" width="500" height="116" transform="rotate(-90 476 506)" fill="url(#paint10_linear_2437_44199)"/>
</g>
<defs>
<filter id="filter0_f_2437_44199" x="198" y="-14" width="521" height="449" filterUnits="userSpaceOnUse" color-interpolation-filters="sRGB">
<feFlood flood-opacity="0" result="BackgroundImageFix"/>
<feBlend mode="normal" in="SourceGraphic" in2="BackgroundImageFix" result="shape"/>
<feGaussianBlur stdDeviation="40" result="effect1_foregroundBlur_2437_44199"/>
</filter>
<filter id="filter1_f_2437_44199" x="-44.2838" y="-15.2237" width="679.839" height="466.664" filterUnits="userSpaceOnUse" color-interpolation-filters="sRGB">
<feFlood flood-opacity="0" result="BackgroundImageFix"/>
<feBlend mode="normal" in="SourceGraphic" in2="BackgroundImageFix" result="shape"/>
<feGaussianBlur stdDeviation="34.3418" result="effect1_foregroundBlur_2437_44199"/>
</filter>
<filter id="filter2_b_2437_44199" x="295.87" y="76.9756" width="358.916" height="470.443" filterUnits="userSpaceOnUse" color-interpolation-filters="sRGB">
<feFlood flood-opacity="0" result="BackgroundImageFix"/>
<feGaussianBlur in="BackgroundImageFix" stdDeviation="7.5"/>
<feComposite in2="SourceAlpha" operator="in" result="effect1_backgroundBlur_2437_44199"/>
<feBlend mode="normal" in="SourceGraphic" in2="effect1_backgroundBlur_2437_44199" result="shape"/>
</filter>
<filter id="filter3_bd_2437_44199" x="271.978" y="53.084" width="145.012" height="444.952" filterUnits="userSpaceOnUse" color-interpolation-filters="sRGB">
<feFlood flood-opacity="0" result="BackgroundImageFix"/>
<feGaussianBlur in="BackgroundImageFix" stdDeviation="20"/>
<feComposite in2="SourceAlpha" operator="in" result="effect1_backgroundBlur_2437_44199"/>
<feColorMatrix in="SourceAlpha" type="matrix" values="0 0 0 0 0 0 0 0 0 0 0 0 0 0 0 0 0 0 127 0" result="hardAlpha"/>
<feOffset/>
<feGaussianBlur stdDeviation="14.7754"/>
<feComposite in2="hardAlpha" operator="out"/>
<feColorMatrix type="matrix" values="0 0 0 0 0 0 0 0 0 0 0 0 0 0 0 0 0 0 0.4 0"/>
<feBlend mode="normal" in2="effect1_backgroundBlur_2437_44199" result="effect2_dropShadow_2437_44199"/>
<feBlend mode="normal" in="SourceGraphic" in2="effect2_dropShadow_2437_44199" result="shape"/>
</filter>
<filter id="filter4_f_2437_44199" x="260.236" y="142.457" width="64.1661" height="64.1826" filterUnits="userSpaceOnUse" color-interpolation-filters="sRGB">
<feFlood flood-opacity="0" result="BackgroundImageFix"/>
<feBlend mode="normal" in="SourceGraphic" in2="BackgroundImageFix" result="shape"/>
<feGaussianBlur stdDeviation="2" result="effect1_foregroundBlur_2437_44199"/>
</filter>
<filter id="filter5_f_2437_44199" x="68.3354" y="142.457" width="64.1661" height="64.1826" filterUnits="userSpaceOnUse" color-interpolation-filters="sRGB">
<feFlood flood-opacity="0" result="BackgroundImageFix"/>
<feBlend mode="normal" in="SourceGraphic" in2="BackgroundImageFix" result="shape"/>
<feGaussianBlur stdDeviation="2" result="effect1_foregroundBlur_2437_44199"/>
</filter>
<filter id="filter6_f_2437_44199" x="97.3546" y="289.47" width="64.1661" height="64.1826" filterUnits="userSpaceOnUse" color-interpolation-filters="sRGB">
<feFlood flood-opacity="0" result="BackgroundImageFix"/>
<feBlend mode="normal" in="SourceGraphic" in2="BackgroundImageFix" result="shape"/>
<feGaussianBlur stdDeviation="2" result="effect1_foregroundBlur_2437_44199"/>
</filter>
<filter id="filter7_f_2437_44199" x="193.837" y="253.95" width="62.1661" height="62.1826" filterUnits="userSpaceOnUse" color-interpolation-filters="sRGB">
<feFlood flood-opacity="0" result="BackgroundImageFix"/>
<feBlend mode="normal" in="SourceGraphic" in2="BackgroundImageFix" result="shape"/>
<feGaussianBlur stdDeviation="1.5" result="effect1_foregroundBlur_2437_44199"/>
</filter>
<filter id="filter8_bd_2437_44199" x="392" y="253.758" width="264.242" height="315.484" filterUnits="userSpaceOnUse" color-interpolation-filters="sRGB">
<feFlood flood-opacity="0" result="BackgroundImageFix"/>
<feGaussianBlur in="BackgroundImageFix" stdDeviation="6.12105"/>
<feComposite in2="SourceAlpha" operator="in" result="effect1_backgroundBlur_2437_44199"/>
<feColorMatrix in="SourceAlpha" type="matrix" values="0 0 0 0 0 0 0 0 0 0 0 0 0 0 0 0 0 0 127 0" result="hardAlpha"/>
<feOffset dx="-18" dy="4"/>
<feGaussianBlur stdDeviation="2"/>
<feComposite in2="hardAlpha" operator="out"/>
<feColorMatrix type="matrix" values="0 0 0 0 0 0 0 0 0 0 0 0 0 0 0 0 0 0 0.25 0"/>
<feBlend mode="normal" in2="effect1_backgroundBlur_2437_44199" result="effect2_dropShadow_2437_44199"/>
<feBlend mode="normal" in="SourceGraphic" in2="effect2_dropShadow_2437_44199" result="shape"/>
</filter>
<linearGradient id="paint0_linear_2437_44199" x1="458.5" y1="66" x2="458.5" y2="355" gradientUnits="userSpaceOnUse">
<stop stop-color="#7B42BC"/>
<stop offset="1" stop-color="#02A8EF"/>
</linearGradient>
<radialGradient id="paint1_radial_2437_44199" cx="0" cy="0" r="1" gradientUnits="userSpaceOnUse" gradientTransform="translate(423.127 278.071) rotate(145.81) scale(574.7 353.595)">
<stop offset="0.4375" stop-color="#141C2E"/>
<stop offset="1" stop-color="#313E5C" stop-opacity="0"/>
</radialGradient>
<linearGradient id="paint2_linear_2437_44199" x1="364.647" y1="60.5971" x2="480.11" y2="347.669" gradientUnits="userSpaceOnUse">
<stop stop-color="#242C39"/>
<stop offset="1" stop-opacity="0"/>
</linearGradient>
<linearGradient id="paint3_linear_2437_44199" x1="344.484" y1="93.084" x2="344.484" y2="451.084" gradientUnits="userSpaceOnUse">
<stop stop-color="#3A4353"/>
<stop offset="0.662011" stop-color="#171B23"/>
<stop offset="1" stop-color="#0F1014" stop-opacity="0"/>
</linearGradient>
<linearGradient id="paint4_linear_2437_44199" x1="328.772" y1="79.2592" x2="505.497" y2="497.764" gradientUnits="userSpaceOnUse">
<stop stop-color="#AA72EC"/>
<stop offset="0.19837" stop-color="#2B89FF"/>
<stop offset="0.307442" stop-color="#D465AA" stop-opacity="0.719126"/>
<stop offset="0.543434" stop-color="#FFA76D"/>
<stop offset="0.822645" stop-color="#FFD951"/>
<stop offset="1" stop-color="#FFD951" stop-opacity="0"/>
</linearGradient>
<linearGradient id="paint5_linear_2437_44199" x1="624.952" y1="453.328" x2="517.676" y2="307.653" gradientUnits="userSpaceOnUse">
<stop stop-color="#151B49"/>
<stop offset="1" stop-color="#1A043C" stop-opacity="0"/>
</linearGradient>
<linearGradient id="paint6_linear_2437_44199" x1="662.684" y1="564.745" x2="512.815" y2="222.703" gradientUnits="userSpaceOnUse">
<stop stop-color="#0F1762" stop-opacity="0"/>
<stop offset="1" stop-color="#C5C9F4" stop-opacity="0.3"/>
</linearGradient>
<linearGradient id="paint7_linear_2437_44199" x1="408" y1="266" x2="529" y2="411" gradientUnits="userSpaceOnUse">
<stop stop-color="white"/>
<stop offset="1" stop-opacity="0"/>
</linearGradient>
<linearGradient id="paint8_linear_2437_44199" x1="1075.49" y1="392.962" x2="1039.52" y2="522.782" gradientUnits="userSpaceOnUse">
<stop stop-color="white" stop-opacity="0"/>
<stop offset="0.110027" stop-color="white" stop-opacity="0"/>
<stop offset="1" stop-color="white"/>
</linearGradient>
<linearGradient id="paint9_linear_2437_44199" x1="433" y1="509" x2="428.613" y2="427.408" gradientUnits="userSpaceOnUse">
<stop offset="0.171548" stop-color="#0D0E12"/>
<stop offset="1" stop-color="#0D0E12" stop-opacity="0"/>
</linearGradient>
<linearGradient id="paint10_linear_2437_44199" x1="680.204" y1="622" x2="683.856" y2="497.107" gradientUnits="userSpaceOnUse">
<stop stop-color="#0D0E12"/>
<stop offset="0.288" stop-color="#0D0E12" stop-opacity="0.49"/>
<stop offset="1" stop-color="#0D0E12" stop-opacity="0"/>
</linearGradient>
<clipPath id="clip0_2437_44199">
<rect width="590" height="477" fill="white"/>
</clipPath>
<clipPath id="clip1_2437_44199">
<rect x="311.978" y="93.084" width="326.7" height="438.227" rx="17.7305" fill="white"/>
</clipPath>
<clipPath id="clip2_2437_44199">
<rect width="89" height="18" fill="white" transform="translate(425.978 135.084)"/>
</clipPath>
<clipPath id="clip3_2437_44199">
<rect width="94" height="18" fill="white" transform="translate(553.978 135.084)"/>
</clipPath>
<clipPath id="clip4_2437_44199">
<rect width="272" height="36" fill="white" transform="translate(451 291)"/>
</clipPath>
<clipPath id="clip5_2437_44199">
<rect width="272" height="36" fill="white" transform="translate(451 291)"/>
</clipPath>
</defs>
</svg>
