<svg width="139" height="48" viewBox="0 0 139 48" fill="none" xmlns="http://www.w3.org/2000/svg">
<g clip-path="url(#clip0_1469_18674)">
<path d="M4.55799 27.0694L6.83091 20.8571L8.98904 27.0694H4.55799ZM11.1931 33.3283H13.2823L7.88702 18.3535H5.82072L0.172852 33.3283H2.26211L3.91514 28.7385H9.56304L11.1931 33.3283ZM21.0654 30.1525C21.0654 31.3811 20.0782 32.0301 18.4021 32.0301C17.0476 32.0301 16.1522 31.6361 15.6472 30.7552L13.6497 31.1029C14.4302 32.7024 16.0375 33.4905 18.3332 33.4905C21.4327 33.4905 23.0399 31.752 23.0399 29.9207C23.0399 27.5563 20.8817 26.9072 18.3792 26.3972C17.1853 26.1422 15.7619 25.7019 15.7619 24.6356C15.7619 23.8706 16.4966 22.9897 17.9888 22.9897C19.5042 22.9897 20.3996 24.0328 20.5374 24.45L22.2822 23.7082C21.4787 22.1552 19.8716 21.5292 18.1726 21.5292C15.5783 21.5292 13.8333 22.8274 13.8333 24.8904C13.8333 27.2317 15.8307 27.6954 17.7593 28.1126C19.4583 28.4604 21.0654 28.8776 21.0654 30.1525ZM27.1955 18.3535L25.2439 19.1649V21.9234H23.4531V23.5228H25.2439V30.8248C25.2209 32.3083 25.2209 33.3746 27.402 33.3746C28.1138 33.3746 28.8943 33.2356 29.2387 33.1891V31.6129C28.8715 31.7287 28.3663 31.8679 27.999 31.8679C27.1955 31.8679 27.1955 31.2884 27.1955 29.9438V23.4996H29.2387V21.9002H27.1955V18.3535ZM30.9377 21.9465V33.3283H32.8203V28.0894C32.8203 27.1158 32.7973 25.9568 33.3025 25.1454C33.9223 24.1255 34.8177 23.7547 36.6774 23.7315V21.7612C35.9198 21.7843 33.8994 21.8306 32.8203 23.9865V21.9465H30.9377ZM47.8813 18.3767V20.2312H56.3072L47.8813 31.4043V33.3515H58.7638V31.5665H50.1542L58.5342 20.2775V18.3999H47.8813V18.3767ZM70.6105 21.9465V33.3283H72.4933V26.8841C72.4933 26.0495 72.4933 25.1687 73.3197 24.3341C73.9166 23.7315 74.6284 23.4764 75.4778 23.4764C76.511 23.4764 77.5671 23.9632 77.8885 25.0296C78.0033 25.4236 78.0033 25.7482 78.0033 26.9072V33.3283H79.8859V26.5827C79.8859 25.6091 79.886 24.9369 79.7022 24.2646C79.1512 22.3869 77.4293 21.6684 76.0058 21.6684C75.3401 21.6684 73.5492 21.8306 72.4933 23.6851V21.9465H70.6105ZM99.9752 30.5698C99.585 31.3579 98.8269 32.0533 97.3806 32.0533C96.1173 32.0533 93.9828 31.242 93.9828 27.4867C93.9828 26.4668 94.1659 22.8969 97.2656 22.8969C98.8269 22.8969 99.562 23.7547 99.8832 24.4964L101.651 23.7547C100.549 21.9234 98.5978 21.4829 97.1736 21.4829C93.5927 21.4829 91.8473 24.4037 91.8473 27.6026C91.8473 30.3843 93.3397 33.4905 97.3346 33.4905C99.6302 33.4905 100.916 32.3547 101.628 31.242L99.9752 30.5698ZM61.473 26.4668H67.4422C67.2815 23.4996 65.5826 22.9897 64.4347 22.9897C62.8275 22.9665 61.6795 24.1719 61.473 26.4668ZM69.0034 31.1493C68.3605 32.2619 67.1208 33.5368 64.6642 33.5368C61.3352 33.5368 59.4296 31.2652 59.4296 27.4172C59.4296 23.1519 62.2307 21.5061 64.5953 21.5061C66.6617 21.5061 68.6362 22.6652 69.3018 25.5164C69.5086 26.4669 69.5086 27.3476 69.5086 27.8113H61.427C61.3811 29.712 62.1617 32.1228 64.8249 32.0764C65.904 32.0533 66.6846 31.5665 67.1667 30.7783L69.0034 31.1493ZM82.9624 26.4668H88.9316C88.7706 23.4996 87.072 22.9897 85.9241 22.9897C84.317 22.9665 83.169 24.1719 82.9624 26.4668ZM90.493 31.1493C89.8498 32.2619 88.6102 33.5368 86.1537 33.5368C82.8246 33.5368 80.919 31.2652 80.919 27.4172C80.919 23.1519 83.697 21.5061 86.0847 21.5061C88.1511 21.5061 90.1259 22.6652 90.7911 25.5164C90.9981 26.4669 90.9981 27.3476 90.9981 27.8113H82.9165C82.8706 29.712 83.6512 32.1228 86.3143 32.0764C87.3934 32.0533 88.1741 31.5665 88.6565 30.7783L90.493 31.1493ZM111.982 33.3283H110.008C110.008 33.3283 109.847 32.5169 109.778 31.6592C109.204 32.2619 108.148 33.4905 106.013 33.4905C103.832 33.4905 102.202 32.1692 102.202 30.2684C102.202 29.6657 102.363 29.0629 102.707 28.553C103.35 27.5795 104.543 26.8145 107.895 26.5595L109.686 26.4204V26.1422C109.686 24.96 109.686 22.9897 107.161 22.9897C105.577 22.9897 105.048 23.7547 104.864 24.4732L103.12 23.7315C103.143 23.6619 103.166 23.6156 103.212 23.546C103.878 22.2943 105.186 21.5292 107.093 21.5292C108.125 21.5292 109.48 21.7843 110.376 22.5028C111.638 23.4533 111.592 25.354 111.592 25.354L111.661 31.1956C111.684 31.1493 111.73 32.8414 111.982 33.3283ZM109.388 30.1988C109.663 29.573 109.686 29.318 109.686 27.6489C108.951 27.7649 107.964 27.9039 106.748 28.182C104.658 28.6458 104.291 29.4339 104.291 30.222C104.291 31.126 105.002 31.9142 106.404 31.9142C107.736 31.891 108.86 31.3579 109.388 30.1988ZM46.5267 33.3283H44.5523C44.5523 33.3283 44.3916 32.5169 44.3227 31.6592C43.7487 32.2619 42.6926 33.4905 40.5574 33.4905C38.3764 33.4905 36.7463 32.1692 36.7463 30.2684C36.7463 29.6657 36.9069 29.0629 37.2513 28.553C37.8942 27.5795 39.0881 26.8145 42.44 26.5595L44.2309 26.4204V26.1422C44.2309 24.96 44.2309 22.9897 41.7283 22.9897C40.1441 22.9897 39.6161 23.7547 39.4325 24.4732L37.6876 23.7315C37.7105 23.6619 37.7564 23.6156 37.7794 23.546C38.4453 22.2943 39.7539 21.5292 41.6595 21.5292C42.6926 21.5292 44.0471 21.7843 44.9425 22.5028C46.2052 23.4533 46.1594 25.354 46.1594 25.354L46.2282 31.1956C46.2282 31.1493 46.2971 32.8414 46.5267 33.3283ZM43.9553 30.1988C44.2309 29.573 44.2769 29.318 44.2769 27.6489C43.5421 27.7649 42.5549 27.9039 41.3381 28.182C39.2488 28.6458 38.8814 29.4339 38.8814 30.222C38.8814 31.126 39.5932 31.9142 40.9937 31.9142C42.2794 31.891 43.4044 31.3579 43.9553 30.1988Z" fill="#616875"/>
<path d="M124.288 23.7549C123.99 23.9404 123.691 24.1259 123.417 24.3346C120.019 22.4337 112.717 18.7712 112.097 18.4235C111.431 18.0757 110.238 17.589 110.399 16.4531C110.606 14.8537 113.337 11.3765 114.508 9.93929C120.798 2.17381 123.622 -0.236979 125.482 0.0180085C127.48 0.272996 128.582 2.35925 128.72 12.0951C127.617 11.7474 126.378 11.3996 125.069 11.052C124.954 9.63796 124.701 7.50536 124.61 6.76357C124.495 5.92908 124.334 5.60454 124.013 5.58137C123.645 5.535 122.727 6.41587 121.877 7.27356C121.487 7.66763 120.432 8.75712 119.238 9.96249C118.25 9.89298 117.584 10.1016 117.216 10.5884C116.919 10.9824 116.873 11.5156 117.034 12.1879C116.391 12.8369 115.84 13.3932 115.495 13.7409C114.187 15.0622 112.786 16.1518 112.717 16.6849C112.671 17.1253 113.314 17.5657 114.278 18.1453C116.597 19.5594 122.268 22.6655 124.288 23.7549ZM133.128 14.0191C130.9 13.2309 125.413 11.1679 119.628 10.4029C117.63 10.1479 116.827 10.8434 117.653 12.7674C118.457 14.6682 120.547 17.8207 122.75 20.2084C124.954 22.596 127.319 23.2218 128.077 19.5594C128.1 19.4202 128.123 19.3044 128.146 19.1652C128.329 18.2148 128.467 17.3108 128.536 16.5226C127.572 16.0822 126.469 15.5954 125.367 15.1318C125.436 15.9663 125.528 17.4267 125.574 18.5394C125.574 18.6785 125.597 18.8175 125.597 18.9566C125.666 20.7647 125.046 20.7647 124.036 20.0229C122.842 19.1652 119.215 14.3205 118.802 12.1879C118.779 12.0487 118.848 12.0487 118.916 12.072C118.939 12.072 118.962 12.0951 119.008 12.1183C119.835 12.4429 122.566 13.5324 125.321 14.7146C126.424 15.1781 127.549 15.665 128.536 16.1285C129.523 16.569 130.395 16.9862 131.061 17.3572C132.256 18.0062 132.715 18.4467 132.233 18.9566C129.73 21.5065 121.028 25.1459 118.02 29.6428C118.02 29.6428 117.997 29.666 117.997 29.6893C117.951 29.7356 117.928 29.782 117.905 29.8516C117.905 29.8747 117.882 29.8979 117.882 29.8979C117.744 30.176 117.515 30.6628 117.446 31.2423C117.308 32.216 117.813 33.12 119.215 33.5141C119.559 33.63 119.973 33.6995 120.409 33.7459C120.478 33.7459 120.57 33.769 120.66 33.769C123.348 33.9082 130.326 32.355 132.439 31.4045C134.642 30.431 133.977 29.4343 133.335 28.9475C132.853 28.5534 130.418 27.1857 129.225 26.5366C128.903 26.7453 128.651 26.9076 128.352 27.1162C130.372 28.3679 131.153 28.9707 131.636 29.3415C131.819 29.4806 131.727 29.6428 131.452 29.666C131.383 29.666 131.314 29.666 131.245 29.6893C129.34 29.8283 125.712 30.0833 124.013 30.176C123.76 30.1992 123.486 30.1992 123.325 30.1992C123.737 29.8052 124.219 29.4343 124.449 29.272C128.1 26.6989 134.16 23.0596 135.952 21.4833C137.26 20.2779 140.842 16.7544 133.128 14.0191Z" fill="#616875"/>
</g>
<defs>
<clipPath id="clip0_1469_18674">
<rect width="138" height="48" fill="white" transform="translate(0.172852)"/>
</clipPath>
</defs>
</svg>
