<svg width="156" height="32" viewBox="0 0 156 32" fill="none" xmlns="http://www.w3.org/2000/svg">
<g clip-path="url(#clip0_3181_2517)">
<path fill-rule="evenodd" clip-rule="evenodd" d="M0 0H32.1535V32H0V0ZM22.9529 9.50382C23.5586 9.2032 24.1786 8.8955 25.0712 8.38785C25.7794 9.5156 25.9919 12.053 25.9919 14.0971C26.7001 12.8284 27.4792 7.96494 27.1251 7.11913C28.1406 6.46517 28.2996 6.11207 28.4945 5.67919C28.5307 5.59885 28.5681 5.51577 28.6124 5.4275C28.2477 5.4702 27.9285 5.49997 27.643 5.52659C26.9858 5.58787 26.507 5.63252 26.0627 5.77992C24.4338 4.79314 20.9635 3.73587 18.2014 3.52441C19.1221 3.94732 22.6632 5.77992 23.0882 6.3438C21.2468 6.55525 17.6348 7.61252 15.8643 8.5993C17.9181 8.1764 20.8219 7.89446 22.8049 7.82397C22.0258 9.02221 21.6009 9.58609 20.3261 10.9253C21.4944 10.2277 22.213 9.87103 22.9529 9.50382ZM7.71964 23.9654C8.56951 24.8112 9.41938 25.3046 10.5525 25.7275C9.34856 25.657 8.42787 25.5161 7.50717 25.1637C7.36552 25.939 7.43635 26.5028 7.64882 27.2077C6.79895 26.3619 6.23237 25.5865 5.73661 24.5293C4.89687 24.1436 4.23389 23.7579 3.47897 23.3187L3.47894 23.3187L3.25781 23.1901C3.7271 22.9566 4.1964 22.8198 4.74619 22.6595L4.74621 22.6595C4.86018 22.6263 4.9776 22.592 5.0992 22.5557C4.88674 21.287 4.88674 20.1592 5.0992 18.5381C5.3825 20.0183 5.66579 21.1461 6.37401 22.3443C6.97038 22.1825 7.52525 22.1032 8.1657 22.0116C8.36188 21.9836 8.56609 21.9544 8.78198 21.9213C8.28622 22.6262 8.00293 23.1901 7.71964 23.9654ZM13.5274 9.65625C13.1733 10.1496 12.7484 10.9955 12.6775 11.3479C15.5813 11.7708 17.9892 13.251 17.9892 13.251C15.4396 12.8281 14.094 12.8281 13.1025 12.969C12.1818 13.0395 11.9693 13.1805 11.9693 13.1805C11.2611 14.6607 10.8361 17.2686 10.8361 17.2686C10.3404 16.1408 9.70298 13.8853 9.70298 13.8853C8.42817 14.5902 5.45361 17.3391 5.45361 17.3391C7.08254 14.0968 8.78228 12.6166 8.78228 12.6166C8.2157 12.0527 6.72842 11.7708 5.59526 11.7003C6.16184 11.4888 7.64912 11.2069 8.78228 11.1364H10.5529C11.4735 10.4316 12.9608 9.72673 13.5274 9.65625ZM15.0853 25.5851C15.6519 24.9507 16.1477 24.3868 16.6434 23.682V24.9507C17.5641 24.5278 18.2724 24.1049 19.1222 23.541C18.414 24.3163 17.7058 24.9507 16.7851 25.6556C16.8382 25.9727 16.8913 26.1708 16.9443 26.369L16.9443 26.369C16.9621 26.4352 16.9798 26.5013 16.9975 26.5719C16.6434 26.6423 16.1477 26.6423 15.6519 26.6423C14.6604 27.2767 13.3148 27.6996 12.3232 27.9111C12.9606 27.4882 13.4564 27.1357 14.0938 26.5719C13.4564 26.4309 12.8898 26.2194 12.3232 25.9375C13.3148 25.9375 14.0938 25.867 15.0853 25.5851Z" fill="#616875"/>
<path d="M44.1931 11.7004C46.3887 11.7004 47.1678 12.1233 47.1678 13.3215C47.1678 13.6739 47.0969 13.9559 46.8844 14.1673C46.4595 14.6607 45.6804 14.9427 44.6181 14.8722H44.5473L43.91 16.4228H44.5473C45.7512 16.4228 46.8136 16.7753 47.3094 17.4096C47.5218 17.6916 47.6636 18.044 47.6636 18.3964C47.6636 19.5946 46.6011 20.229 44.4764 20.229C44.1223 20.229 43.5557 20.229 43.2016 20.229C43.1308 18.6079 43.1308 16.3523 43.1308 15.718C43.1308 14.9427 43.2016 13.251 43.2016 11.7708C43.4141 11.7004 43.839 11.7004 44.1931 11.7004ZM40.2271 10.5726C40.2979 11.7004 40.3687 14.6607 40.3687 15.718C40.3687 16.7048 40.3687 20.0175 40.2271 21.4272V21.5682H45.3264C47.876 21.5682 50.5672 20.7929 50.5672 18.5374C50.5672 17.1277 49.505 16.0704 47.5927 15.5065C49.0092 15.1541 50.0006 14.1673 50.0006 13.0396C50.0006 11.207 47.8759 10.5021 45.8929 10.4316H40.1562L40.2271 10.5726Z" fill="#616875"/>
<path d="M62.5372 10.4316H59.9876L60.0584 13.251C60.1293 14.6607 60.1293 16.0704 60.2709 17.4096C60.1293 16.9867 59.9876 16.7753 59.2086 15.6475C59.2086 15.577 56.5881 11.5594 55.6674 10.4316H52.7637V10.5726C52.8345 11.7004 52.9053 14.6607 52.9053 15.718C52.9053 16.7048 52.9053 20.0175 52.7637 21.4272V21.5682H55.3841V21.4272C55.2425 18.7488 55.2425 15.9999 55.2425 13.3215C55.3133 13.6739 55.455 13.8854 55.8799 14.5197C55.8799 14.5902 60.4126 21.0748 60.625 21.4977V21.5682H62.7497V21.4272C62.6081 20.0175 62.6081 16.7048 62.6081 15.718C62.6081 14.6607 62.6789 11.7004 62.7497 10.5726V10.5021H62.5372V10.4316Z" fill="#616875"/>
<path d="M69.4065 11.7708C70.894 11.7708 71.8855 12.0528 72.3813 12.6167C72.5938 12.8986 72.7354 13.251 72.7354 13.6034C72.7354 15.2246 70.894 15.577 69.4065 15.577H68.7691C68.7691 15.577 68.6274 15.577 68.4858 15.577C68.4858 15.2246 68.4858 14.7312 68.4858 14.1673C68.4858 13.4625 68.4858 12.6167 68.4858 11.8413C68.6982 11.8413 69.0524 11.7708 69.4065 11.7708ZM65.582 10.5726C65.6529 11.7004 65.7237 14.6607 65.7237 15.718C65.7237 16.7048 65.7237 20.0175 65.582 21.4272V21.5682H68.6982V21.4272C68.6274 20.37 68.5566 18.4669 68.5566 16.9867C68.6982 16.9867 69.1232 16.9867 69.1232 16.9867H69.5481C73.6561 16.9867 75.6392 15.9294 75.6392 13.6739C75.6392 11.066 72.8771 10.5021 70.5396 10.4316H65.6529V10.5726" fill="#616875"/>
<path d="M85.342 11.7708C86.8293 11.7708 87.8208 12.0528 88.3166 12.6167C88.529 12.8986 88.6707 13.251 88.6707 13.6034C88.6707 15.2246 86.8293 15.577 85.342 15.577H84.7046C84.7046 15.577 84.563 15.577 84.4213 15.577C84.4213 15.2246 84.4213 14.7312 84.4213 14.1673C84.4213 13.4625 84.4213 12.6167 84.4213 11.8413C84.6338 11.8413 84.9879 11.7708 85.342 11.7708ZM81.5176 10.5726C81.5884 11.7004 81.6592 14.6607 81.6592 15.718C81.6592 16.7048 81.6592 20.0175 81.5176 21.4272V21.5682H84.6338V21.4272C84.563 20.37 84.4921 18.4669 84.4921 16.9867C84.6338 16.9867 85.0587 16.9867 85.0587 16.9867H85.4837C89.5914 16.9867 91.5744 15.9294 91.5744 13.6739C91.5744 11.066 88.7415 10.5021 86.4044 10.4316H81.5176V10.5726Z" fill="#616875"/>
<path d="M96.4598 13.7444C96.6723 14.3083 97.3805 15.718 98.0887 17.4801C97.9471 17.4801 97.8054 17.4801 97.8054 17.4801H96.4598C96.4598 17.4801 95.0433 17.4801 94.8309 17.4801C95.3974 16.0704 95.964 14.8017 96.4598 13.7444ZM95.6807 10.4316C95.0433 12.0528 91.2897 20.1585 90.7231 21.4272L90.6523 21.5682H93.2729V21.4977C93.4853 20.7224 93.8394 19.8766 94.1936 18.9603C94.3352 18.9603 96.389 18.9603 96.389 18.9603H98.2304C98.2304 18.9603 98.5136 18.9603 98.5845 18.9603C99.0802 20.1585 99.4343 21.0748 99.576 21.4977V21.5682H102.621L97.6638 10.4316H97.7346H95.6807Z" fill="#616875"/>
<path d="M103.969 10.5726C104.04 11.7004 104.11 14.6607 104.11 15.718C104.11 16.7048 104.11 20.0175 103.969 21.4272V21.5682H107.085V21.4272C106.943 20.0175 106.873 16.7048 106.873 15.718C106.873 14.9427 106.873 13.251 106.943 11.8413C107.156 11.8413 107.51 11.7708 107.793 11.7708C109.21 11.7708 110.272 12.0528 110.768 12.6167C110.98 12.8986 111.122 13.251 111.122 13.6034C111.122 14.8722 109.918 15.5065 108.785 15.577C108.431 15.577 108.147 15.577 108.147 15.577L107.935 15.5065L108.076 15.718C109.21 17.3391 110.839 20.088 111.547 21.4272V21.4977H114.875L114.805 21.3567C114.663 21.1453 112.468 17.9735 111.547 16.6343L111.476 16.5638C113.176 16.0704 114.026 15.0836 114.026 13.6739C114.026 11.1365 111.264 10.5021 108.856 10.4316H103.969V10.5726Z" fill="#616875"/>
<path d="M119.266 10.4316H116.291V10.5021C116.362 11.6299 116.433 14.5902 116.433 15.6475C116.433 16.6343 116.433 19.9471 116.291 21.3567V21.4977H119.407V21.3567C119.266 19.9471 119.266 16.6343 119.266 15.6475C119.266 14.5902 119.336 11.6299 119.407 10.5021V10.4316H119.266Z" fill="#616875"/>
<path d="M126.136 11.7004C128.332 11.7004 129.111 12.1233 129.111 13.3215C129.111 13.6739 129.04 13.9559 128.827 14.1673C128.402 14.6607 127.623 14.9427 126.561 14.8722H126.49L125.924 16.4228H126.49C127.694 16.4228 128.686 16.7753 129.252 17.4096C129.536 17.6916 129.606 18.044 129.606 18.3964C129.606 19.5946 128.544 20.229 126.348 20.229C125.994 20.229 125.428 20.229 125.074 20.229C125.003 18.6079 125.003 16.3523 125.003 15.718C125.003 14.9427 125.003 13.251 125.074 11.7708C125.357 11.7004 125.782 11.7004 126.136 11.7004ZM122.17 10.5726C122.241 11.7004 122.312 14.6607 122.312 15.718C122.312 16.7048 122.312 20.0175 122.17 21.4272V21.5682H127.34C129.89 21.5682 132.581 20.7929 132.581 18.5374C132.581 17.1277 131.519 16.0704 129.606 15.5065C131.023 15.1541 132.014 14.1673 132.014 13.0396C132.014 11.207 129.89 10.5021 127.907 10.4316H122.17V10.5726Z" fill="#616875"/>
<path d="M138.883 13.6739C139.166 14.1673 139.804 15.6475 140.512 17.4096C140.37 17.4096 140.3 17.4096 140.3 17.4096H138.954C138.954 17.4096 137.537 17.4096 137.325 17.4096C137.821 16.0704 138.387 14.8017 138.883 13.6739ZM140.158 10.4316H138.104V10.5021C137.467 12.1938 133.571 20.7224 133.217 21.4272L133.146 21.5682H135.838V21.4977C136.05 20.7224 136.334 19.8766 136.688 18.9603C136.758 18.9603 138.883 18.9603 138.883 18.9603H140.725H141.079C141.574 20.1585 141.929 21.0748 142.07 21.4977V21.5682H145.116L140.158 10.4316Z" fill="#616875"/>
<path d="M146.107 13.3209C146.107 15.2945 148.09 16.0698 149.79 16.7747C151.136 17.3386 152.552 17.9024 152.552 18.8187C152.552 19.1007 152.481 19.3121 152.34 19.5236C151.986 19.876 151.348 20.0875 150.286 20.017C149.224 19.9465 148.09 19.6645 146.745 19.0302L146.249 18.7482V19.1712V21.1447L146.603 21.2152H146.816C147.453 21.3562 148.728 21.6381 149.932 21.6381C153.19 21.6381 155.173 20.3694 155.173 18.1844C155.173 16.1403 153.19 15.365 151.348 14.6601C150.003 14.0963 148.657 13.6029 148.657 12.7571C148.657 12.4751 148.657 11.7703 150.357 11.7703C151.632 11.7703 152.836 12.2637 153.544 12.5456L154.181 12.8275V12.4046V10.3606L153.544 10.2196C152.906 10.0786 151.844 9.86719 150.782 9.86719C147.949 10.0082 146.107 11.3474 146.107 13.3209Z" fill="#616875"/>
</g>
<defs>
<clipPath id="clip0_3181_2517">
<rect width="156" height="32" fill="white"/>
</clipPath>
</defs>
</svg>
