<svg width="90" height="25" viewBox="0 0 90 25" fill="none" xmlns="http://www.w3.org/2000/svg">
<g clip-path="url(#clip0_1005_4772)">
<path d="M17.3338 10.4173H9.77261C9.67937 10.4179 9.59014 10.4553 9.52421 10.5212C9.45827 10.5871 9.42094 10.6764 9.42029 10.7696V14.4678C9.42029 14.5614 9.45733 14.6513 9.52333 14.7178C9.58933 14.7843 9.67894 14.8219 9.77261 14.8226H12.7211V19.4178C12.7211 19.4178 12.059 19.6427 10.2224 19.6427C8.06097 19.6427 5.04248 18.8531 5.04248 12.2164C5.04248 5.57971 8.1909 4.70265 11.1419 4.70265C13.6957 4.70265 14.7976 5.15242 15.4973 5.36982C15.5485 5.37975 15.6014 5.37823 15.652 5.36539C15.7026 5.35254 15.7498 5.32868 15.7901 5.2955C15.8304 5.26233 15.863 5.22066 15.8853 5.17346C15.9077 5.12627 15.9194 5.07472 15.9195 5.02249L16.7641 1.44928C16.7655 1.39597 16.754 1.34311 16.7305 1.29524C16.707 1.24737 16.6722 1.20591 16.6292 1.17441C16.3443 0.969515 14.6102 0 10.2274 0C5.17991 0 0 2.14893 0 12.4738C0 22.7986 5.92954 24.3403 10.927 24.3403C15.065 24.3403 17.5737 22.5712 17.5737 22.5712C17.6136 22.5398 17.6451 22.4988 17.6652 22.4521C17.6852 22.4054 17.6933 22.3545 17.6887 22.3038V10.7721C17.689 10.7254 17.68 10.6791 17.6623 10.6359C17.6446 10.5927 17.6185 10.5535 17.5855 10.5205C17.5525 10.4875 17.5132 10.4613 17.47 10.4436C17.4268 10.4259 17.3805 10.417 17.3338 10.4173V10.4173ZM56.3118 1.24938C56.3139 1.2029 56.3066 1.15648 56.2906 1.1128C56.2746 1.06913 56.2501 1.02906 56.2185 0.994906C56.1869 0.960756 56.1488 0.933202 56.1065 0.913833C56.0642 0.894465 56.0185 0.883665 55.972 0.882059H51.7241C51.6748 0.879242 51.6255 0.886756 51.5792 0.904118C51.533 0.92148 51.4908 0.948308 51.4556 0.982886C51.4203 1.01746 51.3926 1.05903 51.3743 1.10492C51.356 1.1508 51.3475 1.20001 51.3493 1.24938V9.46777H44.7126V1.24938C44.713 1.2029 44.7041 1.15681 44.6865 1.11378C44.669 1.07074 44.6431 1.03161 44.6103 0.998628C44.5776 0.965646 44.5386 0.939471 44.4957 0.921609C44.4528 0.903747 44.4068 0.894552 44.3603 0.894553H40.1124C40.0652 0.893555 40.0183 0.901995 39.9744 0.91938C39.9304 0.936764 39.8904 0.962742 39.8567 0.99579C39.8229 1.02884 39.7961 1.06829 39.7778 1.11184C39.7595 1.15538 39.7501 1.20214 39.7501 1.24938V23.5207C39.7498 23.5673 39.7586 23.6135 39.7762 23.6567C39.7937 23.6999 39.8196 23.7392 39.8523 23.7724C39.885 23.8056 39.9239 23.832 39.9669 23.8501C40.0098 23.8682 40.0559 23.8777 40.1025 23.8781H44.3503C44.3969 23.8777 44.443 23.8682 44.4859 23.8501C44.5288 23.832 44.5678 23.8056 44.6005 23.7724C44.6332 23.7392 44.6591 23.6999 44.6766 23.6567C44.6941 23.6135 44.703 23.5673 44.7026 23.5207V13.993H51.3493V23.5232C51.349 23.5698 51.3578 23.616 51.3754 23.6592C51.3929 23.7024 51.4188 23.7417 51.4515 23.7749C51.4842 23.8081 51.5231 23.8345 51.5661 23.8526C51.609 23.8707 51.6551 23.8802 51.7017 23.8806H55.9695C56.0161 23.8802 56.0622 23.8707 56.1051 23.8526C56.148 23.8345 56.187 23.8081 56.2197 23.7749C56.2524 23.7417 56.2783 23.7024 56.2958 23.6592C56.3133 23.616 56.3222 23.5698 56.3218 23.5232L56.3118 1.24938Z" fill="#100E0F"/>
<path d="M22.6237 6.93663C24.1403 6.93663 25.3698 5.69484 25.3698 4.16302C25.3698 2.63119 24.1403 1.3894 22.6237 1.3894C21.107 1.3894 19.8776 2.63119 19.8776 4.16302C19.8776 5.69484 21.107 6.93663 22.6237 6.93663Z" fill="#100E0F"/>
<path d="M25.065 18.8206V8.53321C25.065 8.43954 25.0279 8.34967 24.9619 8.28319C24.8959 8.21672 24.8063 8.17905 24.7127 8.17839H20.4648C20.3651 8.18758 20.2723 8.23318 20.2041 8.30646C20.1358 8.37975 20.097 8.47559 20.095 8.57569V23.3183C20.095 23.7506 20.3648 23.8805 20.7147 23.8805H24.5427C24.9625 23.8805 25.065 23.6756 25.065 23.3108V18.8206ZM72.4938 8.21337H68.2684C68.2218 8.2137 68.1757 8.2232 68.1328 8.24134C68.0899 8.25947 68.0509 8.28588 68.0182 8.31906C67.9855 8.35224 67.9596 8.39154 67.9421 8.43472C67.9246 8.47789 67.9157 8.5241 67.9161 8.57069V19.4902C67.1447 19.9972 66.2429 20.2697 65.3199 20.2748C63.7956 20.2748 63.3908 19.5827 63.3908 18.0909V8.5682C63.3912 8.5216 63.3823 8.47539 63.3648 8.43222C63.3472 8.38904 63.3214 8.34974 63.2887 8.31656C63.256 8.28338 63.217 8.25697 63.1741 8.23884C63.1312 8.2207 63.0851 8.2112 63.0385 8.21087H58.7506C58.704 8.2112 58.658 8.2207 58.615 8.23884C58.5721 8.25697 58.5332 8.28338 58.5005 8.31656C58.4678 8.34974 58.4419 8.38904 58.4244 8.43222C58.4068 8.47539 58.398 8.5216 58.3983 8.5682V18.8131C58.3983 23.2434 60.8671 24.3278 64.2654 24.3278C67.0515 24.3278 69.3004 22.7886 69.3004 22.7886C69.3364 23.0934 69.3881 23.3961 69.4553 23.6956C69.4861 23.7516 69.5308 23.7987 69.585 23.8324C69.6393 23.8661 69.7013 23.8852 69.7651 23.888H72.4938C72.5874 23.8874 72.6771 23.8497 72.7431 23.7832C72.8091 23.7168 72.8461 23.6269 72.8461 23.5332V8.5682C72.8461 8.47452 72.8091 8.38465 72.7431 8.31818C72.6771 8.25171 72.5874 8.21403 72.4938 8.21337V8.21337ZM84.0455 7.71112C82.6297 7.70276 81.2373 8.07284 80.0125 8.78309V1.24935C80.0128 1.20288 80.004 1.15679 79.9864 1.11376C79.9689 1.07072 79.943 1.03159 79.9102 0.998606C79.8775 0.965625 79.8385 0.939449 79.7956 0.921587C79.7527 0.903725 79.7067 0.89453 79.6602 0.894531H75.3898C75.3433 0.89453 75.2973 0.903725 75.2544 0.921587C75.2115 0.939449 75.1726 0.965625 75.1398 0.998606C75.1071 1.03159 75.0812 1.07072 75.0636 1.11376C75.046 1.15679 75.0372 1.20288 75.0375 1.24935V23.5207C75.0372 23.5673 75.046 23.6135 75.0636 23.6567C75.0811 23.6999 75.1069 23.7392 75.1397 23.7724C75.1724 23.8055 75.2113 23.8319 75.2542 23.8501C75.2972 23.8682 75.3432 23.8777 75.3898 23.878H78.3533C78.4174 23.8775 78.4801 23.8596 78.5346 23.8261C78.5892 23.7927 78.6337 23.745 78.6632 23.6881C78.7488 23.3508 78.8089 23.0075 78.8431 22.6611C78.8431 22.6611 80.5922 24.3153 83.8956 24.3153C87.7761 24.3153 90.0025 22.3463 90.0025 15.4772C90.0025 8.60818 86.4568 7.71112 84.0455 7.71112ZM82.3788 20.2648C81.512 20.2426 80.6654 19.9982 79.9201 19.5552V12.4937C80.5916 12.1097 81.335 11.8682 82.104 11.7841C83.6257 11.6467 85.1025 12.1064 85.1025 15.7371C85.09 19.5727 84.4278 20.3298 82.3788 20.2673V20.2648ZM37.3039 8.17589H34.1105V3.9555C34.1105 3.79558 34.028 3.70563 33.8431 3.70563H29.4853C29.3154 3.70563 29.2354 3.78059 29.2354 3.94301V8.31582C29.2354 8.31582 27.054 8.84306 26.9066 8.88554C26.834 8.90799 26.7706 8.95312 26.7256 9.01429C26.6807 9.07546 26.6565 9.14944 26.6567 9.22537V11.974C26.6583 12.0626 26.6931 12.1474 26.7542 12.2117C26.8152 12.276 26.8981 12.3151 26.9865 12.3213H29.2354V18.913C29.2354 23.8106 32.6712 24.2903 34.9825 24.2903C35.8427 24.2642 36.6956 24.1238 37.5188 23.873C37.5808 23.8466 37.6332 23.8017 37.6689 23.7445C37.7047 23.6873 37.722 23.6206 37.7187 23.5532V20.5397C37.7174 20.4464 37.6799 20.3573 37.6142 20.2911C37.5485 20.2249 37.4596 20.1868 37.3663 20.1849C37.1814 20.1849 36.7042 20.2599 36.2144 20.2599C34.6452 20.2599 34.113 19.5302 34.113 18.5857V12.3213H37.3064C37.4 12.3207 37.4896 12.283 37.5557 12.2165C37.6217 12.15 37.6587 12.0602 37.6587 11.9665V8.53321C37.6594 8.48632 37.6507 8.43976 37.6331 8.39627C37.6155 8.35278 37.5895 8.31323 37.5564 8.27995C37.5234 8.24667 37.484 8.22032 37.4406 8.20245C37.3973 8.18458 37.3508 8.17555 37.3039 8.17589V8.17589Z" fill="#100E0F"/>
</g>
<defs>
<clipPath id="clip0_1005_4772">
<rect width="90" height="24.3403" fill="white"/>
</clipPath>
</defs>
</svg>
