<svg width="101" height="26" viewBox="0 0 101 26" fill="none" xmlns="http://www.w3.org/2000/svg">
<g clip-path="url(#clip0_1469_19058)">
<path fill-rule="evenodd" clip-rule="evenodd" d="M100.479 4.49549C100.122 4.10939 99.6441 3.91309 98.9977 3.91309C98.3513 3.91309 97.8584 4.11979 97.515 4.54619C97.1716 4.95829 96.9938 5.57709 96.9938 6.38829V12.2695C96.1993 11.4427 95.3738 10.8499 94.5362 10.4508C93.9589 10.1884 93.3428 10.0143 92.7101 9.93469C92.2918 9.88113 91.8702 9.85507 91.4483 9.85669C89.3488 9.85669 87.648 10.5535 86.343 11.9471C85.0529 13.3407 84.4065 15.2751 84.4065 17.7607C84.4065 18.9359 84.5722 20.0318 84.9008 21.0367C85.232 22.0403 85.6953 22.9191 86.3282 23.6653C86.9394 24.3919 87.7067 24.9818 88.5772 25.3943C89.4553 25.7991 90.4173 26.0058 91.3904 25.9988C91.8549 25.9988 92.2953 25.9611 92.706 25.8844C92.9821 25.8454 93.2407 25.7804 93.5033 25.7024C94.144 25.4974 94.7498 25.2022 95.3011 24.8262C95.9183 24.3887 96.4841 23.8874 96.9884 23.3312V23.7173C96.9884 24.4518 97.181 25.0069 97.5514 25.4073C97.9365 25.7934 98.4173 25.9988 98.9923 25.9988C99.5821 25.9988 100.062 25.8051 100.433 25.4333C100.801 25.0459 100.995 24.4791 100.995 23.7199V6.18549C101 5.44839 100.822 4.88029 100.479 4.49549ZM96.2114 20.7156C95.8411 21.4631 95.3455 22.0182 94.7435 22.3796C94.1241 22.7423 93.4508 22.9204 92.7101 22.9204H92.6966C91.9771 22.9236 91.2718 22.7273 90.6645 22.3549C90.0464 21.9675 89.5535 21.4007 89.198 20.6532C88.8425 19.8927 88.6647 18.9762 88.6647 17.8933C88.6647 16.8741 88.8276 15.9732 89.1724 15.2127C89.5023 14.4379 89.9817 13.8451 90.5864 13.4343C91.2059 13.0079 91.8927 12.8142 92.671 12.8142H92.7114C93.44 12.8142 94.112 13.0196 94.7301 13.4187C95.3482 13.8191 95.8411 14.4015 96.2114 15.1607C96.5817 15.9212 96.7609 16.8377 96.7609 17.8933C96.7609 19.0269 96.5817 19.9694 96.2114 20.7156ZM82.8848 20.8846C82.6236 20.6662 82.2667 20.5492 81.8277 20.5492C81.4291 20.5492 81.1274 20.6402 80.9079 20.8079C80.3719 21.2707 79.9477 21.6451 79.6151 21.9155C79.2892 22.1742 78.9148 22.4316 78.5203 22.6747C78.1474 22.9052 77.7406 23.08 77.3136 23.1934C76.8614 23.3099 76.3946 23.3659 75.9266 23.3598C75.8175 23.3598 75.7071 23.3598 75.6101 23.3468C74.9904 23.3153 74.388 23.1381 73.8554 22.8307C73.2225 22.4836 72.7296 21.9701 72.3444 21.298C71.9741 20.6012 71.7815 19.803 71.7694 18.8995H80.0447C81.1557 18.8995 82.0189 18.7435 82.6236 18.4614C83.243 18.1507 83.5433 17.5059 83.5433 16.514C83.5433 15.4311 83.2417 14.3742 82.6518 13.329C82.062 12.2955 81.184 11.4453 79.9908 10.7901C78.8084 10.1323 77.3958 9.80989 75.7354 9.80989H75.6128C74.3914 9.82289 73.2656 10.0179 72.265 10.378C71.2694 10.7392 70.3654 11.3016 69.6134 12.0277C68.8951 12.7748 68.3449 13.6574 67.9974 14.6199C67.6162 15.6717 67.4249 16.779 67.4318 17.8933C67.4318 20.3958 68.1886 22.3549 69.6969 23.8109C71.1244 25.1915 73.0999 25.9143 75.6101 25.991C75.7488 26.004 75.8969 26.004 76.0505 26.004C77.2301 26.004 78.2859 25.861 79.2044 25.5659C80.1241 25.2695 80.8796 24.9068 81.4856 24.47C82.0862 24.0189 82.5401 23.5548 82.8417 23.079C83.1434 22.6019 83.2955 22.1755 83.2955 21.8271C83.2955 21.4241 83.1609 21.103 82.8848 20.8846ZM73.0057 13.5981C73.679 12.9143 74.5422 12.5789 75.5993 12.5789H75.6155C76.7117 12.5789 77.6045 12.9143 78.2765 13.5838C78.9498 14.2559 79.3471 15.2738 79.4441 16.6388H71.7708C71.9068 15.2998 72.3202 14.2806 73.0057 13.5981ZM64.8651 20.5479C64.4543 20.5479 64.1527 20.6389 63.9332 20.8053C63.412 21.2694 62.973 21.6438 62.6431 21.9142C62.3131 22.1716 61.9563 22.4303 61.5576 22.6734C61.1617 22.9061 60.7618 23.0868 60.3376 23.1908C59.8855 23.3082 59.4186 23.3642 58.9505 23.3572C58.8428 23.3572 58.7323 23.3572 58.6354 23.3442C58.0154 23.3127 57.4127 23.136 56.8793 22.8294C56.2417 22.4637 55.7237 21.9321 55.3845 21.2954C54.9994 20.5999 54.8068 19.8004 54.792 18.8982H63.0807C64.1783 18.8982 65.0415 18.7422 65.6596 18.4588C66.2629 18.1494 66.5672 17.5046 66.5672 16.5127C66.5672 15.4285 66.2777 14.3716 65.6879 13.3277C65.098 12.2942 64.2065 11.4427 63.0269 10.7875C61.8445 10.131 60.4184 9.80859 58.7741 9.80859H58.6354C57.4153 9.82159 56.3043 10.0166 55.2876 10.3767C54.2949 10.7337 53.3953 11.2963 52.6521 12.0251C51.9236 12.7675 51.3672 13.6512 51.02 14.6173C50.6378 15.6689 50.4464 16.7763 50.4544 17.8907C50.4544 20.3932 51.2247 22.3523 52.7329 23.8083C54.1604 25.1902 56.1225 25.9117 58.634 25.9884C58.7849 26.0014 58.9195 26.0014 59.073 26.0014C60.2662 26.0014 61.3099 25.8597 62.2283 25.5646C63.1467 25.2669 63.9035 24.9055 64.5055 24.4687C65.125 24.0163 65.5626 23.5535 65.8656 23.0777C66.1659 22.6006 66.3195 22.1742 66.3195 21.8245C66.3195 21.4254 66.1808 21.103 65.9208 20.8846C65.6488 20.6636 65.2893 20.5479 64.8651 20.5479ZM56.0282 13.5981C56.7002 12.9143 57.5661 12.5789 58.6233 12.5789H58.6381C59.7343 12.5789 60.6271 12.9143 61.2991 13.5838C61.9845 14.2559 62.3697 15.2738 62.4801 16.6388H54.7947C54.9455 15.2998 55.3589 14.2806 56.0282 13.5981ZM8.8168 23.3598V13.8685C9.10229 13.8945 9.37836 13.9062 9.66654 13.9062C10.9866 13.9122 12.2845 13.5783 13.4264 12.939V23.3572C13.4264 24.2477 13.2069 24.9042 12.78 25.3436C12.3558 25.7804 11.7929 25.9988 11.1075 25.9988C10.4341 25.9988 9.89952 25.7804 9.4605 25.3293C9.0363 24.8925 8.8168 24.2347 8.8168 23.3598ZM48.6781 4.49679C48.3213 4.10939 47.8284 3.91309 47.2103 3.91309C46.5639 3.91309 46.071 4.11979 45.7262 4.54619C45.3707 4.95829 45.2051 5.57709 45.2051 6.38829V12.2695C44.4105 11.4427 43.5891 10.8499 42.7488 10.4508C42.1717 10.1901 41.5568 10.0161 40.9254 9.93469C40.5066 9.88101 40.0846 9.85495 39.6622 9.85669C37.5627 9.85669 35.8471 10.5535 34.5583 11.9471C33.2669 13.3407 32.6218 15.2751 32.6218 17.7607C32.6218 18.9359 32.7875 20.0318 33.1012 21.0367C33.4042 21.9938 33.8942 22.8861 34.5449 23.6653C35.1556 24.3924 35.923 24.9824 36.7938 25.3943C37.6719 25.7991 38.6339 26.0058 39.607 25.9988C40.0595 25.9988 40.4985 25.9611 40.9227 25.8844C41.1987 25.8454 41.4586 25.7804 41.7199 25.7024C42.3606 25.4974 42.9664 25.2022 43.5177 24.8262C44.0793 24.4388 44.6314 23.9357 45.2037 23.3312V23.7173C45.2037 24.4518 45.3976 25.0069 45.768 25.4073C46.1383 25.7934 46.6339 25.9988 47.2089 25.9988C47.7705 25.9988 48.266 25.8051 48.6364 25.4333C49.0067 25.0459 49.1831 24.4791 49.1831 23.7199V6.18549C49.1845 5.44839 49.0215 4.88029 48.6795 4.49549L48.6781 4.49679ZM44.4227 20.7156C44.0537 21.4631 43.5581 22.0182 42.9413 22.3796C42.338 22.7423 41.6499 22.9204 40.9254 22.9204H40.9119C40.1712 22.9204 39.4979 22.7267 38.8811 22.3549C38.2509 21.9675 37.7701 21.4007 37.4133 20.6532C37.0577 19.8927 36.8786 18.9762 36.8786 17.8933C36.8786 16.8741 37.0443 15.9732 37.3715 15.2127C37.7136 14.4379 38.1809 13.8451 38.799 13.4343C39.4023 13.0079 40.1026 12.8142 40.8715 12.8142H40.9254C41.6526 12.8142 42.3246 13.0196 42.9292 13.4187C43.5608 13.8191 44.0537 14.4015 44.424 15.1607C44.7795 15.9212 44.9734 16.8377 44.9734 17.8933C44.9734 19.0269 44.7782 19.9694 44.4227 20.7156ZM20.1934 12.0251V12.5165C20.9476 11.587 21.7569 10.9175 22.6363 10.4781C23.5278 10.0543 24.5432 9.83329 25.6959 9.83329C26.8083 9.83329 27.8102 10.0673 28.6855 10.5171C29.5358 10.9443 30.2231 11.6218 30.6476 12.4515C30.9371 12.9403 31.1162 13.4707 31.197 14.0388C31.2792 14.5926 31.3196 15.3141 31.3196 16.1916V23.5821C31.3196 24.3803 31.1136 24.9861 30.7298 25.3852C30.3473 25.7973 29.8383 26.0027 29.2215 26.0027C28.5886 26.0027 28.0822 25.7973 27.6836 25.3735C27.285 24.9588 27.0924 24.3556 27.0924 23.5821V16.9612C27.0924 15.6469 26.8998 14.642 26.516 13.9452C26.1322 13.251 25.3485 12.9013 24.1998 12.9013C23.4429 12.9013 22.7588 13.1197 22.1394 13.5331C21.5076 13.9693 21.0292 14.5817 20.7685 15.2881C20.5624 15.8796 20.4668 16.9755 20.4668 18.6161V23.5795C20.4668 24.3907 20.2621 24.9835 19.8648 25.3982C19.4662 25.7973 18.9599 26.0027 18.327 26.0027C17.7088 26.0027 17.2133 25.7973 16.8173 25.3735C16.4187 24.9588 16.2275 24.3556 16.2275 23.5821V12.0901C16.2275 11.3309 16.4066 10.7641 16.7635 10.4001C17.1055 10.0283 17.5849 9.83329 18.2044 9.83329C18.5747 9.83329 18.9047 9.91129 19.205 10.079C19.5066 10.2454 19.7517 10.4911 19.9322 10.8252C20.1099 11.1606 20.1934 11.5623 20.1934 12.0251ZM8.84238 0.614989C11.6973 -0.352211 14.9495 -0.300211 17.391 1.68359C17.8448 2.08269 18.3647 2.58709 18.5707 3.17859C18.8185 3.92869 17.7075 3.10059 17.5553 2.99789C16.7581 2.50779 15.9636 2.09569 15.0721 1.81229C10.2698 0.421289 5.7262 2.93549 2.90089 6.84329C1.72121 8.56709 0.952262 10.3871 0.323369 12.3839C0.253342 12.6023 0.199476 12.887 0.0755823 13.0794C-0.0496577 13.3004 0.0217156 12.4879 0.0217156 12.4606C0.115982 11.6351 0.295089 10.8356 0.517289 10.0374C1.81952 5.78249 4.70004 2.23739 8.84373 0.612389L8.84238 0.614989ZM14.3718 8.26029C14.3469 9.1118 13.979 9.92037 13.3463 10.5142C12.7136 11.108 11.866 11.4402 10.9836 11.4402C10.1012 11.4402 9.25352 11.108 8.62082 10.5142C7.98812 9.92037 7.62024 9.1118 7.59537 8.26029C7.5826 7.823 7.66079 7.38768 7.82531 6.98007C7.98984 6.57246 8.23737 6.20084 8.55326 5.88718C8.86915 5.57352 9.24698 5.32419 9.66442 5.15394C10.0819 4.98368 10.5304 4.89596 10.9836 4.89596C11.4367 4.89596 11.8853 4.98368 12.3027 5.15394C12.7202 5.32419 13.098 5.57352 13.4139 5.88718C13.7298 6.20084 13.9773 6.57246 14.1418 6.98007C14.3064 7.38768 14.3846 7.823 14.3718 8.26029Z" fill="#616875"/>
</g>
<defs>
<clipPath id="clip0_1469_19058">
<rect width="101" height="26" fill="white"/>
</clipPath>
</defs>
</svg>
