<svg width="488" height="274" viewBox="0 0 488 274" fill="none" xmlns="http://www.w3.org/2000/svg">
<g clip-path="url(#clip0_2612_2715)">
<rect width="488" height="274" fill="white"/>
<rect width="592" height="633" transform="matrix(-4.37114e-08 1 1 4.37114e-08 -263 -230)" fill="url(#paint0_linear_2612_2715)" fill-opacity="0.54"/>
<path fill-rule="evenodd" clip-rule="evenodd" d="M884.496 -199.445L884.496 304.106L118.773 304.106L409.498 -199.445L884.496 -199.445Z" fill="url(#paint1_linear_2612_2715)"/>
<g filter="url(#filter0_ddd_2612_2715)">
<rect x="136" y="30" width="216" height="279" fill="white"/>
<mask id="mask0_2612_2715" style="mask-type:alpha" maskUnits="userSpaceOnUse" x="136" y="30" width="216" height="279">
<rect x="136" y="30" width="216" height="279" fill="#C4C4C4"/>
</mask>
<g mask="url(#mask0_2612_2715)">
<rect x="136.252" y="29.8066" width="199.527" height="94.6032" fill="url(#paint2_linear_2612_2715)"/>
<rect opacity="0.5" x="136" y="30" width="216" height="231" fill="url(#paint3_linear_2612_2715)"/>
<path opacity="0.9" d="M159.813 200V191.25H161.55V200H159.813ZM166.882 193.5C168.532 193.5 169.37 194.612 169.37 196.3V200H167.72V196.612C167.72 195.65 167.282 195.037 166.37 195.037C165.445 195.037 164.845 195.762 164.845 196.875V200H163.194V193.675H164.845V194.475C165.282 193.912 165.97 193.5 166.882 193.5ZM174.646 193.5C176.296 193.5 177.134 194.612 177.134 196.3V200H175.484V196.612C175.484 195.65 175.046 195.037 174.134 195.037C173.209 195.037 172.609 195.762 172.609 196.875V200H170.959V193.675H172.609V194.475C173.046 193.912 173.734 193.5 174.646 193.5ZM181.723 200.175C179.773 200.175 178.336 198.725 178.336 196.837C178.336 194.937 179.773 193.5 181.723 193.5C183.673 193.5 185.098 194.937 185.098 196.837C185.098 198.725 183.673 200.175 181.723 200.175ZM181.723 198.675C182.773 198.675 183.498 197.887 183.498 196.837C183.498 195.787 182.773 195 181.723 195C180.661 195 179.948 195.787 179.948 196.837C179.948 197.887 180.661 198.675 181.723 198.675ZM190.585 193.675H192.385L189.773 200H187.91L185.298 193.675H187.11L188.848 198.175L190.585 193.675ZM195.805 200.175C194.055 200.175 192.68 198.75 192.68 196.837C192.68 194.912 194.055 193.5 195.805 193.5C196.693 193.5 197.393 193.862 197.843 194.437V193.675H199.505V200H197.843V199.225C197.393 199.8 196.693 200.175 195.805 200.175ZM196.093 198.7C197.093 198.7 197.893 197.925 197.893 196.825C197.893 195.737 197.093 194.975 196.093 194.975C195.055 194.975 194.318 195.737 194.318 196.825C194.318 197.925 195.055 198.7 196.093 198.7ZM204.762 198.462L205.162 199.8C204.662 200 204.212 200.1 203.687 200.1C202.237 200.1 201.575 199.2 201.575 197.837V195.125H200.512V193.675H201.575V191.625H203.237V193.675H205.087V195.125H203.237V197.837C203.237 198.35 203.487 198.637 204.012 198.637C204.3 198.637 204.512 198.587 204.762 198.462ZM207.164 192.787C206.614 192.787 206.176 192.362 206.176 191.812C206.176 191.287 206.614 190.862 207.164 190.862C207.714 190.862 208.151 191.287 208.151 191.812C208.151 192.362 207.714 192.787 207.164 192.787ZM206.313 200V193.675H207.976V200H206.313ZM212.647 200.175C210.697 200.175 209.259 198.725 209.259 196.837C209.259 194.937 210.697 193.5 212.647 193.5C214.597 193.5 216.022 194.937 216.022 196.837C216.022 198.725 214.597 200.175 212.647 200.175ZM212.647 198.675C213.697 198.675 214.422 197.887 214.422 196.837C214.422 195.787 213.697 195 212.647 195C211.584 195 210.872 195.787 210.872 196.837C210.872 197.887 211.584 198.675 212.647 198.675ZM220.989 193.5C222.639 193.5 223.477 194.612 223.477 196.3V200H221.826V196.612C221.826 195.65 221.389 195.037 220.476 195.037C219.551 195.037 218.951 195.762 218.951 196.875V200H217.301V193.675H218.951V194.475C219.389 193.912 220.076 193.5 220.989 193.5ZM229.005 192.787C228.455 192.787 228.017 192.362 228.017 191.812C228.017 191.287 228.455 190.862 229.005 190.862C229.555 190.862 229.992 191.287 229.992 191.812C229.992 192.362 229.555 192.787 229.005 192.787ZM228.155 200V193.675H229.817V200H228.155ZM235.175 193.5C236.826 193.5 237.663 194.612 237.663 196.3V200H236.013V196.612C236.013 195.65 235.576 195.037 234.663 195.037C233.738 195.037 233.138 195.762 233.138 196.875V200H231.488V193.675H233.138V194.475C233.575 193.912 234.263 193.5 235.175 193.5ZM241.74 200.175C240.177 200.175 238.977 199.25 238.665 198.225L240.152 197.787C240.365 198.387 240.965 198.837 241.802 198.837C242.44 198.837 242.852 198.537 242.852 198.187C242.852 197.875 242.615 197.7 242.152 197.562L240.54 197.087C239.64 196.825 238.977 196.3 238.977 195.4C238.977 194.337 240.127 193.5 241.515 193.5C242.877 193.5 243.915 194.15 244.315 195.1L242.852 195.525C242.627 195.125 242.165 194.787 241.502 194.787C240.99 194.787 240.602 195.062 240.602 195.362C240.602 195.612 240.777 195.762 241.127 195.862L242.702 196.312C243.652 196.587 244.477 196.975 244.477 198.112C244.477 199.3 243.352 200.175 241.74 200.175ZM246.597 192.787C246.047 192.787 245.609 192.362 245.609 191.812C245.609 191.287 246.047 190.862 246.597 190.862C247.147 190.862 247.584 191.287 247.584 191.812C247.584 192.362 247.147 192.787 246.597 192.787ZM245.747 200V193.675H247.409V200H245.747ZM253.818 193.675H255.468V199.775C255.468 201.538 254.18 202.8 252.205 202.8C250.655 202.8 249.68 202.088 249.155 201.138L250.593 200.625C250.918 201.138 251.443 201.438 252.243 201.438C253.28 201.438 253.805 200.713 253.818 199.775V199.012C253.343 199.6 252.655 199.925 251.818 199.925C250.005 199.925 248.693 198.512 248.693 196.712C248.693 194.812 250.005 193.5 251.818 193.5C252.655 193.5 253.343 193.825 253.818 194.412V193.675ZM252.105 198.437C253.118 198.437 253.855 197.737 253.855 196.712C253.855 195.7 253.118 194.987 252.105 194.987C251.055 194.987 250.33 195.687 250.33 196.712C250.33 197.737 251.055 198.437 252.105 198.437ZM260.801 193.5C262.451 193.5 263.288 194.612 263.288 196.3V200H261.638V196.612C261.638 195.65 261.201 195.037 260.288 195.037C259.363 195.037 258.763 195.762 258.763 196.875V200H257.113V190.875H258.763V194.475C259.201 193.912 259.888 193.5 260.801 193.5ZM268.49 198.462L268.89 199.8C268.39 200 267.94 200.1 267.415 200.1C265.965 200.1 265.303 199.2 265.303 197.837V195.125H264.24V193.675H265.303V191.625H266.965V193.675H268.815V195.125H266.965V197.837C266.965 198.35 267.215 198.637 267.74 198.637C268.028 198.637 268.24 198.587 268.49 198.462ZM275.443 193.1V193.675H277.355V195.125H275.443V200H273.793V195.125H272.58V193.675H273.793V193.1C273.793 191.637 274.543 190.7 276.018 190.7C276.568 190.7 277.018 190.775 277.443 190.975L277.043 192.3C276.78 192.187 276.568 192.137 276.255 192.137C275.73 192.137 275.443 192.5 275.443 193.1ZM280.929 200.175C278.979 200.175 277.541 198.725 277.541 196.837C277.541 194.937 278.979 193.5 280.929 193.5C282.879 193.5 284.304 194.937 284.304 196.837C284.304 198.725 282.879 200.175 280.929 200.175ZM280.929 198.675C281.979 198.675 282.704 197.887 282.704 196.837C282.704 195.787 281.979 195 280.929 195C279.866 195 279.154 195.787 279.154 196.837C279.154 197.887 279.866 198.675 280.929 198.675ZM287.233 194.612C287.608 193.875 288.333 193.45 289.321 193.587V195.137C287.971 194.925 287.233 195.55 287.233 197.25V200H285.583V193.675H287.233V194.612ZM162.788 215.175C160.85 215.175 159.425 213.725 159.425 211.825C159.425 209.937 160.85 208.5 162.775 208.5C164.525 208.5 165.613 209.625 165.863 210.575L164.325 211.012C164.188 210.487 163.6 209.962 162.775 209.962C161.725 209.962 161.05 210.825 161.05 211.825C161.05 212.812 161.725 213.7 162.775 213.7C163.6 213.7 164.188 213.212 164.325 212.687L165.863 213.112C165.613 214.075 164.525 215.175 162.788 215.175ZM170.089 215.175C168.139 215.175 166.701 213.725 166.701 211.837C166.701 209.937 168.139 208.5 170.089 208.5C172.039 208.5 173.464 209.937 173.464 211.837C173.464 213.725 172.039 215.175 170.089 215.175ZM170.089 213.675C171.139 213.675 171.864 212.887 171.864 211.837C171.864 210.787 171.139 210 170.089 210C169.026 210 168.314 210.787 168.314 211.837C168.314 212.887 169.026 213.675 170.089 213.675ZM178.431 208.5C180.081 208.5 180.918 209.612 180.918 211.3V215H179.268V211.612C179.268 210.65 178.831 210.037 177.918 210.037C176.993 210.037 176.393 210.762 176.393 211.875V215H174.743V208.675H176.393V209.475C176.831 208.912 177.518 208.5 178.431 208.5ZM186.12 213.462L186.52 214.8C186.02 215 185.57 215.1 185.045 215.1C183.595 215.1 182.932 214.2 182.932 212.837V210.125H181.87V208.675H182.932V206.625H184.595V208.675H186.445V210.125H184.595V212.837C184.595 213.35 184.845 213.637 185.37 213.637C185.657 213.637 185.87 213.587 186.12 213.462ZM188.521 207.787C187.971 207.787 187.534 207.362 187.534 206.812C187.534 206.287 187.971 205.862 188.521 205.862C189.071 205.862 189.509 206.287 189.509 206.812C189.509 207.362 189.071 207.787 188.521 207.787ZM187.671 215V208.675H189.334V215H187.671ZM194.692 208.5C196.342 208.5 197.18 209.612 197.18 211.3V215H195.53V211.612C195.53 210.65 195.092 210.037 194.18 210.037C193.255 210.037 192.655 210.762 192.655 211.875V215H191.005V208.675H192.655V209.475C193.092 208.912 193.78 208.5 194.692 208.5ZM203.171 208.675H204.821V215H203.171V214.2C202.746 214.762 202.058 215.175 201.146 215.175C199.483 215.175 198.646 214.062 198.646 212.362V208.675H200.296V212.05C200.296 213.012 200.733 213.637 201.646 213.637C202.583 213.637 203.171 212.912 203.171 211.787V208.675ZM209.473 215.175C207.523 215.175 206.085 213.725 206.085 211.837C206.085 209.937 207.523 208.5 209.473 208.5C211.423 208.5 212.848 209.937 212.848 211.837C212.848 213.725 211.423 215.175 209.473 215.175ZM209.473 213.675C210.523 213.675 211.248 212.887 211.248 211.837C211.248 210.787 210.523 210 209.473 210C208.41 210 207.698 210.787 207.698 211.837C207.698 212.887 208.41 213.675 209.473 213.675ZM218.59 208.675H220.24V215H218.59V214.2C218.165 214.762 217.477 215.175 216.565 215.175C214.902 215.175 214.064 214.062 214.064 212.362V208.675H215.714V212.05C215.714 213.012 216.152 213.637 217.065 213.637C218.002 213.637 218.59 212.912 218.59 211.787V208.675ZM224.379 215.175C222.816 215.175 221.616 214.25 221.304 213.225L222.791 212.787C223.004 213.387 223.604 213.837 224.441 213.837C225.079 213.837 225.491 213.537 225.491 213.187C225.491 212.875 225.254 212.7 224.791 212.562L223.179 212.087C222.279 211.825 221.616 211.3 221.616 210.4C221.616 209.337 222.766 208.5 224.154 208.5C225.516 208.5 226.554 209.15 226.954 210.1L225.491 210.525C225.266 210.125 224.804 209.787 224.141 209.787C223.629 209.787 223.241 210.062 223.241 210.362C223.241 210.612 223.416 210.762 223.766 210.862L225.341 211.312C226.291 211.587 227.116 211.975 227.116 213.112C227.116 214.3 225.991 215.175 224.379 215.175ZM232.337 207.787C231.787 207.787 231.35 207.362 231.35 206.812C231.35 206.287 231.787 205.862 232.337 205.862C232.887 205.862 233.325 206.287 233.325 206.812C233.325 207.362 232.887 207.787 232.337 207.787ZM231.487 215V208.675H233.15V215H231.487ZM238.508 208.5C240.158 208.5 240.996 209.612 240.996 211.3V215H239.346V211.612C239.346 210.65 238.908 210.037 237.996 210.037C237.071 210.037 236.471 210.762 236.471 211.875V215H234.821V208.675H236.471V209.475C236.908 208.912 237.596 208.5 238.508 208.5ZM244.872 208.1V208.675H246.785V210.125H244.872V215H243.222V210.125H242.01V208.675H243.222V208.1C243.222 206.637 243.972 205.7 245.447 205.7C245.997 205.7 246.447 205.775 246.872 205.975L246.472 207.3C246.21 207.187 245.997 207.137 245.685 207.137C245.16 207.137 244.872 207.5 244.872 208.1ZM249.277 209.612C249.652 208.875 250.377 208.45 251.365 208.587V210.137C250.015 209.925 249.277 210.55 249.277 212.25V215H247.627V208.675H249.277V209.612ZM254.845 215.175C253.095 215.175 251.72 213.75 251.72 211.837C251.72 209.912 253.095 208.5 254.845 208.5C255.733 208.5 256.433 208.862 256.883 209.437V208.675H258.545V215H256.883V214.225C256.433 214.8 255.733 215.175 254.845 215.175ZM255.133 213.7C256.133 213.7 256.933 212.925 256.933 211.825C256.933 210.737 256.133 209.975 255.133 209.975C254.095 209.975 253.358 210.737 253.358 211.825C253.358 212.925 254.095 213.7 255.133 213.7ZM262.677 215.175C261.114 215.175 259.914 214.25 259.602 213.225L261.089 212.787C261.302 213.387 261.902 213.837 262.739 213.837C263.377 213.837 263.789 213.537 263.789 213.187C263.789 212.875 263.552 212.7 263.089 212.562L261.477 212.087C260.577 211.825 259.914 211.3 259.914 210.4C259.914 209.337 261.064 208.5 262.452 208.5C263.814 208.5 264.852 209.15 265.252 210.1L263.789 210.525C263.564 210.125 263.102 209.787 262.439 209.787C261.927 209.787 261.539 210.062 261.539 210.362C261.539 210.612 261.714 210.762 262.064 210.862L263.639 211.312C264.589 211.587 265.414 211.975 265.414 213.112C265.414 214.3 264.289 215.175 262.677 215.175ZM270.187 213.462L270.587 214.8C270.087 215 269.637 215.1 269.112 215.1C267.662 215.1 266.999 214.2 266.999 212.837V210.125H265.937V208.675H266.999V206.625H268.662V208.675H270.512V210.125H268.662V212.837C268.662 213.35 268.912 213.637 269.437 213.637C269.724 213.637 269.937 213.587 270.187 213.462ZM273.401 209.612C273.776 208.875 274.501 208.45 275.488 208.587V210.137C274.138 209.925 273.401 210.55 273.401 212.25V215H271.751V208.675H273.401V209.612ZM281.036 208.675H282.686V215H281.036V214.2C280.611 214.762 279.923 215.175 279.011 215.175C277.348 215.175 276.511 214.062 276.511 212.362V208.675H278.161V212.05C278.161 213.012 278.598 213.637 279.511 213.637C280.448 213.637 281.036 212.912 281.036 211.787V208.675ZM287.313 215.175C285.375 215.175 283.95 213.725 283.95 211.825C283.95 209.937 285.375 208.5 287.3 208.5C289.05 208.5 290.138 209.625 290.388 210.575L288.85 211.012C288.713 210.487 288.125 209.962 287.3 209.962C286.25 209.962 285.575 210.825 285.575 211.825C285.575 212.812 286.25 213.7 287.3 213.7C288.125 213.7 288.713 213.212 288.85 212.687L290.388 213.112C290.138 214.075 289.05 215.175 287.313 215.175ZM295.226 213.462L295.626 214.8C295.126 215 294.676 215.1 294.151 215.1C292.701 215.1 292.039 214.2 292.039 212.837V210.125H290.976V208.675H292.039V206.625H293.701V208.675H295.551V210.125H293.701V212.837C293.701 213.35 293.951 213.637 294.476 213.637C294.764 213.637 294.976 213.587 295.226 213.462ZM301.216 208.675H302.866V215H301.216V214.2C300.791 214.762 300.103 215.175 299.191 215.175C297.528 215.175 296.691 214.062 296.691 212.362V208.675H298.341V212.05C298.341 213.012 298.778 213.637 299.691 213.637C300.628 213.637 301.216 212.912 301.216 211.787V208.675ZM306.168 209.612C306.543 208.875 307.268 208.45 308.255 208.587V210.137C306.905 209.925 306.168 210.55 306.168 212.25V215H304.518V208.675H306.168V209.612ZM312.048 215.175C310.023 215.175 308.611 213.837 308.611 211.837C308.611 209.95 309.936 208.5 311.923 208.5C313.998 208.5 315.186 209.937 315.186 211.75C315.186 211.95 315.186 212.137 315.149 212.337H310.236C310.348 213.15 310.923 213.775 312.073 213.775C312.873 213.775 313.361 213.412 313.611 212.937L315.099 213.375C314.736 214.2 313.711 215.175 312.048 215.175ZM310.236 211.3H313.573C313.498 210.525 312.898 209.9 311.911 209.9C310.948 209.9 310.323 210.575 310.236 211.3ZM162.55 230.175C160.8 230.175 159.425 228.75 159.425 226.837C159.425 224.912 160.8 223.5 162.55 223.5C163.438 223.5 164.138 223.862 164.588 224.437V223.675H166.25V230H164.588V229.225C164.138 229.8 163.438 230.175 162.55 230.175ZM162.838 228.7C163.838 228.7 164.638 227.925 164.638 226.825C164.638 225.737 163.838 224.975 162.838 224.975C161.8 224.975 161.063 225.737 161.063 226.825C161.063 227.925 161.8 228.7 162.838 228.7ZM172.357 223.675H174.007V230H172.357V229.2C171.932 229.762 171.244 230.175 170.332 230.175C168.669 230.175 167.832 229.062 167.832 227.362V223.675H169.482V227.05C169.482 228.012 169.919 228.637 170.832 228.637C171.769 228.637 172.357 227.912 172.357 226.787V223.675ZM179.271 228.462L179.671 229.8C179.171 230 178.721 230.1 178.196 230.1C176.746 230.1 176.084 229.2 176.084 227.837V225.125H175.021V223.675H176.084V221.625H177.746V223.675H179.596V225.125H177.746V227.837C177.746 228.35 177.996 228.637 178.521 228.637C178.809 228.637 179.021 228.587 179.271 228.462ZM183.53 230.175C181.58 230.175 180.142 228.725 180.142 226.837C180.142 224.937 181.58 223.5 183.53 223.5C185.48 223.5 186.905 224.937 186.905 226.837C186.905 228.725 185.48 230.175 183.53 230.175ZM183.53 228.675C184.58 228.675 185.305 227.887 185.305 226.837C185.305 225.787 184.58 225 183.53 225C182.467 225 181.755 225.787 181.755 226.837C181.755 227.887 182.467 228.675 183.53 228.675ZM195.747 223.5C197.259 223.5 198.247 224.475 198.247 226.237V230H196.597V226.587C196.597 225.637 196.247 225.037 195.384 225.037C194.497 225.037 194.047 225.7 194.047 226.775V230H192.384V226.587C192.384 225.65 192.047 225.037 191.197 225.037C190.309 225.037 189.834 225.712 189.834 226.825V230H188.184V223.675H189.834V224.425C190.247 223.887 190.872 223.5 191.709 223.5C192.597 223.5 193.222 223.85 193.609 224.45C194.022 223.925 194.734 223.5 195.747 223.5ZM202.568 230.175C200.818 230.175 199.443 228.75 199.443 226.837C199.443 224.912 200.818 223.5 202.568 223.5C203.456 223.5 204.156 223.862 204.606 224.437V223.675H206.268V230H204.606V229.225C204.156 229.8 203.456 230.175 202.568 230.175ZM202.856 228.7C203.856 228.7 204.656 227.925 204.656 226.825C204.656 225.737 203.856 224.975 202.856 224.975C201.818 224.975 201.081 225.737 201.081 226.825C201.081 227.925 201.818 228.7 202.856 228.7ZM211.525 228.462L211.925 229.8C211.425 230 210.975 230.1 210.45 230.1C209 230.1 208.337 229.2 208.337 227.837V225.125H207.275V223.675H208.337V221.625H210V223.675H211.85V225.125H210V227.837C210 228.35 210.25 228.637 210.775 228.637C211.062 228.637 211.275 228.587 211.525 228.462ZM213.926 222.787C213.376 222.787 212.939 222.362 212.939 221.812C212.939 221.287 213.376 220.862 213.926 220.862C214.476 220.862 214.914 221.287 214.914 221.812C214.914 222.362 214.476 222.787 213.926 222.787ZM213.076 230V223.675H214.739V230H213.076ZM219.41 230.175C217.46 230.175 216.022 228.725 216.022 226.837C216.022 224.937 217.46 223.5 219.41 223.5C221.36 223.5 222.785 224.937 222.785 226.837C222.785 228.725 221.36 230.175 219.41 230.175ZM219.41 228.675C220.46 228.675 221.185 227.887 221.185 226.837C221.185 225.787 220.46 225 219.41 225C218.347 225 217.635 225.787 217.635 226.837C217.635 227.887 218.347 228.675 219.41 228.675ZM227.752 223.5C229.402 223.5 230.239 224.612 230.239 226.3V230H228.589V226.612C228.589 225.65 228.152 225.037 227.239 225.037C226.314 225.037 225.714 225.762 225.714 226.875V230H224.064V223.675H225.714V224.475C226.152 223.912 226.839 223.5 227.752 223.5Z" fill="black"/>
<g clip-path="url(#clip1_2612_2715)">
<mask id="mask1_2612_2715" style="mask-type:luminance" maskUnits="userSpaceOnUse" x="80" y="39" width="153" height="115">
<path d="M80.8987 153.587H232.488V39.5147H80.8987V153.587Z" fill="white"/>
</mask>
<g mask="url(#mask1_2612_2715)">
<path d="M200.35 63.423L200.227 64.9048H199.624C198.661 64.9048 198.161 65.6793 198.161 66.4215V69.7682H196.454V63.423H198.071L198.107 64.2149C198.447 63.6719 199.04 63.423 199.772 63.423H200.35ZM188.518 69.7681H186.81V66.4138C186.81 65.7113 186.749 64.8271 185.765 64.8271C184.816 64.8271 184.438 65.5138 184.438 66.3135V69.7681H182.731V63.4229H184.314L184.35 64.2341C184.689 63.691 185.321 63.2681 186.254 63.2681C187.975 63.2681 188.518 64.501 188.518 65.784V69.7681ZM181.986 68.2859L181.866 69.7297C181.457 69.8399 181.093 69.8795 180.653 69.8795C179.044 69.8795 178.577 69.1389 178.577 67.6506V61.6336H180.285V63.423H181.984L181.866 64.9046H180.285V67.5218C180.285 68.119 180.448 68.4416 181.059 68.4416C181.324 68.4416 181.619 68.4096 181.986 68.2859ZM178.016 63.423L177.884 64.9048H177.419C176.458 64.9048 175.981 65.6783 175.981 66.4215V69.7682H174.272V63.423H175.89L175.923 64.2149C176.264 63.6719 176.858 63.423 177.591 63.423H178.016ZM166.564 69.0652C165.406 69.687 164.248 70.0457 162.72 70.0012C159.886 69.9144 157.842 68.1489 157.842 65.1669C157.842 62.198 159.906 60.301 162.721 60.2564C164.148 60.2346 165.425 60.5979 166.423 61.4817L165.221 62.7021C164.603 62.1738 163.695 61.865 162.609 61.9143C160.837 61.9971 159.769 63.289 159.746 65.0651C159.722 66.9896 160.899 68.3158 162.737 68.3642C163.602 68.3859 164.222 68.2693 164.758 68.0278V66.0607H162.848L162.977 64.4474H166.564V69.0652ZM195.691 67.1986H191.008C191.142 68.0094 191.777 68.4971 192.568 68.5192C193.337 68.5402 193.767 68.307 194.33 67.7355L195.444 68.5882C194.652 69.567 193.702 69.9232 192.619 69.9232C190.715 69.9232 189.288 68.5872 189.288 66.5954C189.288 64.6056 190.708 63.2681 192.548 63.2681C194.576 63.2681 195.691 64.501 195.691 66.6895V67.1986ZM193.98 65.8719C193.928 65.0704 193.329 64.5636 192.505 64.5958C191.675 64.6273 191.123 65.1695 191.008 65.8719H193.98ZM173.197 65.6131V69.7681H171.691L171.654 69.1424C171.192 69.7166 170.442 69.9233 169.669 69.9233C168.506 69.9233 167.407 69.3479 167.385 68.0079C167.35 65.9016 169.747 65.752 171.253 65.752H171.554V65.6686C171.554 64.9721 171.094 64.5959 170.229 64.5959C169.608 64.5959 168.996 64.8457 168.542 65.2721L167.557 64.2675C168.452 63.5396 169.383 63.2681 170.374 63.2681C172.333 63.2681 173.197 64.1765 173.197 65.6131ZM171.554 67.001H171.316C170.507 67.0027 169.087 67.0427 169.092 67.8911C169.1 69.0864 171.554 68.7065 171.554 67.265V67.001ZM199.018 69.03C199.018 68.6262 199.322 68.3218 199.711 68.3218C200.096 68.3218 200.4 68.6262 200.4 69.03C200.4 69.441 200.096 69.7444 199.711 69.7444C199.322 69.7444 199.018 69.441 199.018 69.03ZM199.711 69.8863C200.175 69.8863 200.571 69.5249 200.571 69.03C200.571 68.5401 200.175 68.1795 199.711 68.1795C199.243 68.1795 198.847 68.5401 198.847 69.03C198.847 69.5249 199.243 69.8863 199.711 69.8863ZM199.531 69.0984H199.702L199.961 69.5249H200.128L199.849 69.0915C199.993 69.0738 200.103 68.9962 200.103 68.8201C200.103 68.6262 199.988 68.5401 199.756 68.5401H199.383V69.5249H199.531V69.0984ZM199.531 68.9714V68.6671H199.734C199.837 68.6671 199.947 68.6895 199.947 68.8115C199.947 68.9626 199.835 68.9714 199.709 68.9714H199.531Z" fill="#182954"/>
</g>
</g>
<path d="M159 81H335" stroke="black" stroke-width="0.592021"/>
</g>
</g>
</g>
<defs>
<filter id="filter0_ddd_2612_2715" x="113.5" y="29.6379" width="363.666" height="430.713" filterUnits="userSpaceOnUse" color-interpolation-filters="sRGB">
<feFlood flood-opacity="0" result="BackgroundImageFix"/>
<feColorMatrix in="SourceAlpha" type="matrix" values="0 0 0 0 0 0 0 0 0 0 0 0 0 0 0 0 0 0 127 0" result="hardAlpha"/>
<feOffset dx="3" dy="25.1379"/>
<feGaussianBlur stdDeviation="12.75"/>
<feColorMatrix type="matrix" values="0 0 0 0 0 0 0 0 0 0 0 0 0 0 0 0 0 0 0.17 0"/>
<feBlend mode="normal" in2="BackgroundImageFix" result="effect1_dropShadow_2612_2715"/>
<feColorMatrix in="SourceAlpha" type="matrix" values="0 0 0 0 0 0 0 0 0 0 0 0 0 0 0 0 0 0 127 0" result="hardAlpha"/>
<feOffset dx="42.4201" dy="57.0839"/>
<feGaussianBlur stdDeviation="21.2101"/>
<feColorMatrix type="matrix" values="0 0 0 0 0 0 0 0 0 0 0 0 0 0 0 0 0 0 0.1 0"/>
<feBlend mode="normal" in2="effect1_dropShadow_2612_2715" result="effect2_dropShadow_2612_2715"/>
<feColorMatrix in="SourceAlpha" type="matrix" values="0 0 0 0 0 0 0 0 0 0 0 0 0 0 0 0 0 0 127 0" result="hardAlpha"/>
<feOffset dx="74.8899" dy="101.075"/>
<feGaussianBlur stdDeviation="25.1379"/>
<feColorMatrix type="matrix" values="0 0 0 0 0 0 0 0 0 0 0 0 0 0 0 0 0 0 0.03 0"/>
<feBlend mode="normal" in2="effect2_dropShadow_2612_2715" result="effect3_dropShadow_2612_2715"/>
<feBlend mode="normal" in="SourceGraphic" in2="effect3_dropShadow_2612_2715" result="shape"/>
</filter>
<linearGradient id="paint0_linear_2612_2715" x1="434.452" y1="327.48" x2="372.558" y2="669.624" gradientUnits="userSpaceOnUse">
<stop stop-color="#FDFDFD"/>
<stop offset="1" stop-color="#A2D4FD"/>
</linearGradient>
<linearGradient id="paint1_linear_2612_2715" x1="118.773" y1="304.106" x2="500.982" y2="-405.898" gradientUnits="userSpaceOnUse">
<stop stop-color="#EAEFF4"/>
<stop offset="1" stop-color="#2BCDBC"/>
</linearGradient>
<linearGradient id="paint2_linear_2612_2715" x1="236.015" y1="29.8066" x2="236.015" y2="124.41" gradientUnits="userSpaceOnUse">
<stop offset="0.38294" stop-color="white"/>
<stop offset="1" stop-color="white" stop-opacity="0"/>
</linearGradient>
<linearGradient id="paint3_linear_2612_2715" x1="178.373" y1="48.1364" x2="267.058" y2="191.166" gradientUnits="userSpaceOnUse">
<stop offset="2.46311e-09" stop-color="#F2F2F3"/>
<stop offset="1" stop-color="#F2F2F3" stop-opacity="0"/>
</linearGradient>
<clipPath id="clip0_2612_2715">
<rect width="488" height="274" fill="white"/>
</clipPath>
<clipPath id="clip1_2612_2715">
<rect width="42.9321" height="9.9074" fill="white" transform="translate(157.718 60.1465)"/>
</clipPath>
</defs>
</svg>
