<svg width="124" height="18" viewBox="0 0 124 18" fill="none" xmlns="http://www.w3.org/2000/svg">
<path fill-rule="evenodd" clip-rule="evenodd" d="M67.7247 8.35838C67.7247 8.35838 66.5234 7.61875 65.7801 7.33262C65.7801 7.33262 63.4804 6.27158 63.0241 5.76677C63.0241 5.76677 62.1277 4.92592 62.6527 3.94928C62.6527 3.94928 62.8723 3.31021 63.8195 3.31021C63.8195 3.31021 65.0529 3.37772 65.0529 4.38658V5.80973H69.4723L69.4646 3.71375C69.4646 3.71375 69.8042 0.281329 64.2589 0.130192C64.2589 0.130192 59.8972 -0.155208 58.6463 2.1832C58.6463 2.1832 58.1553 2.70489 58.1553 4.52161V5.83427C58.1553 5.83427 58.1052 7.3487 58.8821 8.32459C58.8821 8.32459 59.3214 8.96441 60.4035 9.67025C60.4035 9.67025 62.601 10.8479 63.9198 11.5222C63.9198 11.5222 65.2511 12.2787 65.0761 13.4824C65.0761 13.4824 64.967 14.7184 63.6815 14.6677C63.6815 14.6677 62.5062 14.6155 62.5062 13.4035V11.981H57.7969V14.047C57.7969 14.047 57.6651 17.9981 63.7162 17.9981C63.7162 17.9981 69.4981 18.1147 69.7681 13.9435V12.2611C69.7681 12.2611 69.9721 9.70478 67.7247 8.35838ZM45.0989 0.621962L43.6191 9.85279H43.2729L41.8594 0.704822H34.4772L34.1073 17.4212H38.4782L38.5306 4.82618H38.8743L41.1911 17.4189H45.7895L48.0779 4.83079H48.3823L48.4879 17.4212H52.8819L52.4087 0.621962H45.0989ZM19.08 0.691778L16.1721 17.402H20.8774L22.6 4.44566H22.987L24.7088 17.402H29.4135L26.5062 0.691778H19.08ZM117.814 8.12815V10.5932H119.021V13.2392C119.021 14.5327 117.911 14.5565 117.911 14.5565C116.56 14.5565 116.611 13.3274 116.611 13.3274V4.17484C116.611 3.23195 117.81 3.18132 117.81 3.18132C118.959 3.18132 118.967 4.30603 118.967 4.30603V5.69771H123.397C123.542 2.98109 122.998 2.3236 122.998 2.3236C121.899 -0.132955 117.742 0.00130356 117.742 0.00130356C111.353 0.00130356 112.062 4.88066 112.062 4.88066V13.7302C112.199 18.3066 118.495 17.8417 118.601 17.8378C121.401 17.5294 122.247 16.6432 122.247 16.6432C123.025 16.0679 123.225 15.2707 123.225 15.2707C123.449 14.8066 123.504 13.3274 123.504 13.3274V8.12815H117.814ZM103.129 10.8479H102.937L98.4403 0.626563H93.0612V17.4227H97.4392L97.1772 7.20295H97.3731L102.031 17.4227H107.247V0.62503H102.813L103.129 10.8479ZM82.3754 13.2377C82.3754 13.2377 82.4387 14.6163 81.1541 14.6163C81.1541 14.6163 79.8043 14.6885 79.8043 13.2722L79.7901 0.636536H74.9883V13.1717C74.9883 13.1717 74.4962 17.9161 81.2219 17.9161C81.2219 17.9161 87.067 17.9851 87.067 13.3896V0.637304H82.3754V13.2377ZM9.92587 8.35838C9.92587 8.35838 8.72588 7.61875 7.98205 7.3334C7.98205 7.3334 5.68371 6.27311 5.22743 5.76754C5.22743 5.76754 4.33105 4.92515 4.8567 3.95081C4.8567 3.95081 5.07559 3.31175 6.02207 3.31175C6.02207 3.31175 7.256 3.37849 7.256 4.38734V5.8105H11.6771L11.6686 3.71375C11.6686 3.71375 12.0061 0.281329 6.46292 0.130958C6.46292 0.130958 6.04519 0.104105 5.43245 0.134792C5.43245 0.134792 2.07431 0.314316 0.873481 2.14791C0.866545 2.16172 0.856534 2.17169 0.84959 2.18397C0.84959 2.18397 0.359398 2.70489 0.359398 4.52238V5.83504C0.359398 5.83504 0.308529 7.34947 1.08621 8.32541C1.08621 8.32541 1.52554 8.96523 2.60766 9.67099C2.60766 9.67099 4.80429 10.8487 6.12304 11.523C6.12304 11.523 7.45563 12.278 7.27912 13.4832C7.27912 13.4832 7.17049 14.7192 5.88564 14.6685C5.88564 14.6685 4.71026 14.6163 4.71026 13.4042V11.981H0.00022965V14.0486C0.00022965 14.0486 -0.131567 17.9997 5.91956 17.9997C5.91956 17.9997 11.7001 18.1163 11.9722 13.9451V12.2641C11.9722 12.2641 12.1742 9.70478 9.92587 8.35838Z" fill="#616875"/>
</svg>
