<svg width="128" height="28" viewBox="0 0 128 28" fill="none" xmlns="http://www.w3.org/2000/svg">
<g clip-path="url(#clip0_1469_18618)">
<mask id="mask0_1469_18618" style="mask-type:luminance" maskUnits="userSpaceOnUse" x="0" y="0" width="128" height="28">
<path d="M128 0H0V28H128V0Z" fill="white"/>
</mask>
<g mask="url(#mask0_1469_18618)">
<path d="M46.4429 7.84864H41.387C41.1662 7.84887 40.9546 7.93643 40.7985 8.09211C40.6424 8.24778 40.5546 8.45885 40.5544 8.67901V9.80555C40.5585 9.94976 40.619 10.0867 40.7228 10.1871C40.8266 10.2875 40.9657 10.3436 41.1104 10.3432H41.9439C41.9561 10.3431 41.9682 10.3459 41.9791 10.3515C41.99 10.357 41.9995 10.3651 42.0066 10.375C42.0155 10.3877 42.0214 10.4022 42.0239 10.4174C42.0263 10.4327 42.0252 10.4484 42.0208 10.4631L40.0417 16.3833C40.0327 16.4013 40.0187 16.4164 40.0012 16.4266C39.9838 16.4367 39.9638 16.4416 39.9436 16.4406C39.9261 16.4418 39.9088 16.4367 39.8948 16.4261C39.8808 16.4156 39.8711 16.4004 39.8676 16.3833L36.9108 8.37754V8.37313C36.8712 8.27636 36.8051 8.19262 36.7201 8.13139C36.6351 8.07016 36.5346 8.03389 36.4301 8.0267H34.6445C34.5393 8.03233 34.4376 8.06738 34.3513 8.12787C34.2651 8.18835 34.1976 8.27181 34.1567 8.36872V8.37313L31.1999 16.3833C31.1969 16.4014 31.1873 16.4178 31.173 16.4294C31.1587 16.4409 31.1406 16.4468 31.1222 16.4458C31.102 16.4469 31.0819 16.4421 31.0645 16.4319C31.0471 16.4217 31.033 16.4066 31.024 16.3885L29.0441 10.4641C29.0396 10.4492 29.0388 10.4334 29.0415 10.4181C29.0444 10.4028 29.0506 10.3883 29.06 10.3759C29.0669 10.3659 29.0761 10.3578 29.0869 10.3523C29.0978 10.3467 29.1097 10.344 29.1219 10.3441H29.9563C30.1009 10.3444 30.24 10.2884 30.3438 10.188C30.4477 10.0875 30.5081 9.95063 30.5123 9.80641V8.67901C30.512 8.4587 30.4241 8.2475 30.2679 8.09179C30.1116 7.93609 29.8996 7.84864 29.6788 7.84864H24.6228C24.5348 7.84839 24.4479 7.86924 24.3696 7.90943C24.2913 7.94962 24.2239 8.00798 24.1729 8.07959C24.124 8.14537 24.0913 8.2217 24.0775 8.3024C24.0637 8.3831 24.0692 8.46591 24.0933 8.54414C24.165 8.74952 24.2498 8.99723 24.3355 9.24933C24.4212 9.50144 24.5034 9.74384 24.5804 9.96507C24.6156 10.0733 24.6839 10.1677 24.7757 10.2352C24.8675 10.3027 24.9781 10.3399 25.0922 10.3415H25.9434C25.9628 10.3415 26.0061 10.3415 26.0433 10.4094L29.9652 21.9367C29.9999 22.0454 30.0679 22.1403 30.1598 22.2082C30.2517 22.2761 30.3626 22.3134 30.4769 22.3149H31.6932C31.804 22.3144 31.912 22.2804 32.0031 22.2174C32.0941 22.1546 32.1638 22.0655 32.2032 21.9622C33.286 18.8436 35.3517 12.9005 35.433 12.6977C35.4387 12.6758 35.4517 12.6563 35.4698 12.6426C35.4879 12.6289 35.5101 12.6216 35.5328 12.6219C35.5545 12.6211 35.5758 12.6274 35.5936 12.6398C35.6113 12.6523 35.6244 12.6701 35.631 12.6907C35.7141 12.9005 37.7807 18.8436 38.8617 21.9578C38.9001 22.0626 38.9697 22.1531 39.0612 22.2174C39.1526 22.2817 39.2616 22.3166 39.3734 22.3175H40.5888C40.7034 22.3161 40.8145 22.2786 40.9065 22.2105C40.9986 22.1425 41.0668 22.0473 41.1015 21.9384L45.0225 10.4112C45.0605 10.3432 45.1039 10.3432 45.1233 10.3432H45.9745C46.0878 10.3418 46.1979 10.3051 46.2893 10.2382C46.3808 10.1714 46.449 10.0777 46.4845 9.97041C46.5614 9.74737 46.6463 9.4988 46.7285 9.25639C46.8169 9.00075 46.9008 8.7504 46.9715 8.5459C46.9966 8.46754 47.0025 8.38435 46.9888 8.30324C46.9751 8.22213 46.9423 8.14546 46.8929 8.07959C46.842 8.00792 46.7745 7.94953 46.6962 7.90933C46.6179 7.86914 46.531 7.84831 46.4429 7.84864ZM105.629 19.9921H104.709C104.639 19.9907 104.574 19.9629 104.526 19.9144C104.477 19.8659 104.45 19.8005 104.448 19.732V8.36784C104.448 8.3188 104.437 8.27041 104.418 8.2255C104.398 8.18058 104.369 8.14003 104.333 8.10623C104.298 8.07242 104.256 8.04603 104.21 8.02859C104.164 8.01115 104.115 8.00301 104.066 8.00466H101.391C101.335 8.00555 101.28 8.01836 101.229 8.04221C101.178 8.06607 101.133 8.10044 101.096 8.14306C100.957 8.31936 100.261 9.18234 99.9843 9.52877C99.941 9.58284 99.9143 9.64767 99.9056 9.71605C99.8978 9.78451 99.908 9.85383 99.9371 9.91656C99.9654 9.97921 100.011 10.0328 100.068 10.0714C100.126 10.11 100.193 10.1321 100.261 10.1352H100.609C100.677 10.1386 100.743 10.1669 100.791 10.2148C100.84 10.2628 100.869 10.327 100.874 10.3953V19.6977C100.87 19.7733 100.846 19.8464 100.803 19.9092C100.507 20.2901 99.8647 21.0869 99.5524 21.4854C99.5052 21.5394 99.4746 21.6057 99.4635 21.6767C99.4525 21.7476 99.4628 21.8201 99.4919 21.8857C99.521 21.9513 99.5682 22.0072 99.6279 22.0468C99.6877 22.0865 99.7585 22.1082 99.8301 22.1095H104.516C104.565 22.113 104.614 22.1055 104.66 22.0875C104.706 22.0695 104.747 22.0414 104.781 22.0055L105.875 20.6364C106.116 20.3562 105.942 19.9921 105.629 19.9921Z" fill="#616875"/>
<path d="M102.643 6.47958C103.756 6.47958 104.658 5.57976 104.658 4.46977C104.658 3.35978 103.756 2.45996 102.643 2.45996C101.529 2.45996 100.627 3.35978 100.627 4.46977C100.627 5.57976 101.529 6.47958 102.643 6.47958Z" fill="#616875"/>
<path d="M120.377 9.18159C120.377 8.99119 120.273 8.80078 120.012 8.80078H119.542V10.0349H119.719V9.58003H119.876L120.188 10.0304H120.397L120.066 9.5624C120.291 9.54565 120.377 9.35437 120.377 9.18159ZM119.719 9.40637V8.95593H120.031C120.06 8.95704 120.087 8.96392 120.112 8.97613C120.137 8.98834 120.159 9.0056 120.177 9.02683C120.195 9.04805 120.208 9.07277 120.216 9.09942C120.224 9.12606 120.226 9.15404 120.222 9.18159C120.226 9.21046 120.222 9.23967 120.214 9.26725C120.204 9.29483 120.189 9.32013 120.17 9.34144C120.15 9.36276 120.126 9.37958 120.099 9.39078C120.072 9.40199 120.043 9.4073 120.014 9.40637H119.719Z" fill="#616875"/>
<path d="M119.926 8.35063C119.716 8.35063 119.511 8.41267 119.337 8.5289C119.162 8.64513 119.026 8.81034 118.946 9.00362C118.866 9.19691 118.844 9.4096 118.885 9.61479C118.926 9.82001 119.028 10.0084 119.175 10.1564C119.324 10.3043 119.513 10.405 119.719 10.4459C119.924 10.4867 120.138 10.4657 120.332 10.3857C120.525 10.3057 120.691 10.1701 120.808 9.9961C120.924 9.82213 120.986 9.61761 120.986 9.40843C120.986 9.12788 120.875 8.85882 120.676 8.66045C120.477 8.46208 120.208 8.35063 119.926 8.35063ZM119.926 10.3075C119.807 10.3084 119.689 10.2856 119.579 10.2407C119.469 10.1957 119.369 10.1293 119.286 10.0455C119.201 9.96171 119.135 9.86209 119.09 9.75241C119.044 9.64274 119.021 9.5252 119.023 9.40666C119.02 9.28763 119.042 9.1693 119.086 9.0588C119.131 8.9483 119.197 8.84793 119.281 8.76374C119.366 8.67955 119.467 8.61329 119.577 8.56896C119.688 8.52461 119.806 8.50313 119.926 8.50577C120.165 8.50577 120.396 8.60069 120.565 8.76964C120.734 8.93859 120.829 9.16773 120.829 9.40666C120.829 9.64556 120.734 9.87473 120.565 10.0437C120.396 10.2126 120.165 10.3075 119.926 10.3075ZM59.6451 20.0436C58.8637 20.078 58.481 19.7149 58.481 18.8307V12.4558C58.481 9.66668 56.136 7.90018 53.4958 7.90018C49.3962 7.90018 47.9201 9.83948 47.7504 12.0053C47.7475 12.0569 47.7552 12.1085 47.7731 12.157C47.7911 12.2055 47.8187 12.2498 47.8546 12.2871C47.8904 12.3245 47.9335 12.3542 47.9813 12.3742C48.029 12.3943 48.0804 12.4043 48.1322 12.4037H50.1475C50.2405 12.4012 50.3293 12.3644 50.3967 12.3004C50.4641 12.2364 50.5054 12.1498 50.5126 12.0573C50.6169 10.9317 51.3806 10.1004 52.649 10.1004C54.0562 10.1004 54.9074 10.8056 54.9074 12.4214V13.8071H54.1782C51.659 13.8071 49.9221 14.1368 48.758 14.8649C47.5939 15.593 47.0034 16.9434 47.0034 18.5204C47.0034 19.6805 47.403 20.636 48.2021 21.3959C49.0011 22.1558 49.9389 22.4871 51.1729 22.4871C51.9077 22.488 52.6331 22.3222 53.2942 22.0023C53.945 21.7123 54.5482 21.326 55.0832 20.8564C55.113 20.8283 55.1488 20.8074 55.188 20.7954C55.2272 20.7834 55.2686 20.7807 55.309 20.7874C55.3494 20.794 55.3877 20.8099 55.4209 20.8338C55.4542 20.8577 55.4814 20.889 55.5005 20.9251C56.0741 21.93 56.699 22.2597 57.8976 22.2597C58.9751 22.2597 59.4957 21.2548 59.9651 20.6484C60.1313 20.4077 59.9404 20.0261 59.6451 20.0436ZM54.9206 19.022H54.9029C54.9029 19.1102 54.7642 19.2291 54.712 19.2812C54.3835 19.5565 54.0215 19.7893 53.6345 19.974C53.2835 20.1235 52.904 20.1945 52.5226 20.1821C51.9675 20.1821 51.4115 19.974 51.0465 19.5756C50.6764 19.1685 50.4774 18.6351 50.4905 18.0859C50.4905 17.2546 50.8034 16.7001 51.4283 16.2841C52.0532 15.868 53.0785 15.6777 54.3098 15.6777H54.918L54.9206 19.022ZM98.0729 20.0436C97.2918 20.078 96.9087 19.7149 96.9087 18.8307V12.4558C96.9087 9.66668 94.5638 7.90018 91.9239 7.90018C87.8241 7.90018 86.3476 9.83948 86.1785 12.0053C86.1753 12.0569 86.1832 12.1087 86.2013 12.1573C86.2194 12.2058 86.2469 12.2501 86.2831 12.2875C86.3185 12.3249 86.3618 12.3545 86.4097 12.3744C86.4577 12.3944 86.5089 12.4044 86.5608 12.4037H88.5753C88.6681 12.4012 88.757 12.3644 88.8246 12.3004C88.8923 12.2364 88.9332 12.1498 88.9403 12.0573C89.0449 10.9317 89.8095 10.1004 91.0767 10.1004C92.484 10.1004 93.3351 10.8056 93.3351 12.4214V13.8071H92.6059C90.0872 13.8071 88.3503 14.1368 87.1861 14.8649C86.0219 15.593 85.4233 16.9426 85.4233 18.5196C85.4233 19.6796 85.8229 20.6351 86.6221 21.395C87.4213 22.1548 88.359 22.4863 89.5932 22.4863C90.3279 22.4871 91.0531 22.3213 91.7139 22.0015C92.3652 21.7113 92.9686 21.325 93.5042 20.8555C93.5341 20.8276 93.5695 20.8068 93.6089 20.795C93.6474 20.7831 93.6891 20.7804 93.7292 20.787C93.7693 20.7937 93.8079 20.8095 93.8409 20.8334C93.874 20.8571 93.9015 20.8882 93.9204 20.9243C94.4938 21.9292 95.1192 22.2588 96.3172 22.2588C97.3949 22.2588 97.9156 21.2539 98.3852 20.6475C98.559 20.4077 98.3679 20.0261 98.0729 20.0436ZM93.3485 19.022H93.3312C93.3312 19.1102 93.192 19.2291 93.14 19.2812C92.8112 19.5565 92.4494 19.7893 92.0624 19.974C91.7115 20.1234 91.3324 20.1945 90.9517 20.1821C90.3955 20.1821 89.8394 19.974 89.4744 19.5756C89.1047 19.1685 88.9049 18.6351 88.9183 18.0859C88.9183 17.2546 89.2313 16.7001 89.8567 16.2841C90.4828 15.868 91.5062 15.6777 92.7404 15.6777H93.3485V19.022ZM117.122 7.95396C116.935 7.85523 116.467 7.81116 116.061 7.81116C115.403 7.81116 114.885 7.89931 114.431 8.09236L114.395 8.10822C114.224 8.18518 114.061 8.27877 113.908 8.38766C113.338 8.74132 112.826 9.18148 112.392 9.69227C112.392 9.69227 112.196 9.83861 112.163 9.59178V8.32772C112.161 8.22902 112.121 8.13474 112.051 8.06494C111.981 7.99514 111.887 7.95533 111.788 7.95396H109.097C109.043 7.95396 108.99 7.96594 108.942 7.98899C108.894 8.01203 108.853 8.04556 108.82 8.08707C108.82 8.08707 107.976 9.13957 107.698 9.49746C107.534 9.70727 107.633 10.1066 107.993 10.1066H108.329C108.399 10.1077 108.466 10.1359 108.515 10.1853C108.565 10.2346 108.593 10.3013 108.594 10.3711V19.7149C108.595 19.7888 108.573 19.8614 108.533 19.9229C108.267 20.2482 107.594 21.0935 107.265 21.5096C107.223 21.5645 107.196 21.6301 107.189 21.6991C107.181 21.7682 107.193 21.838 107.223 21.9008C107.253 21.9635 107.3 22.0168 107.358 22.0546C107.416 22.0925 107.484 22.1134 107.554 22.1152H113.355C113.454 22.1152 113.55 22.0758 113.62 22.0057C113.69 21.9356 113.73 21.8405 113.73 21.7414V20.3495C113.73 20.3004 113.72 20.2519 113.701 20.2065C113.683 20.1612 113.655 20.12 113.62 20.0853C113.585 20.0506 113.544 20.023 113.498 20.0042C113.453 19.9855 113.404 19.9758 113.355 19.9758H112.434C112.363 19.9758 112.296 19.9479 112.246 19.8983C112.197 19.8487 112.168 19.7815 112.168 19.7113V14.2742C112.275 11.688 113.822 10.8982 114.565 10.6672L114.672 10.6363L114.701 10.6284C114.903 10.5759 115.111 10.5483 115.32 10.5464C116.204 10.5464 116.532 10.6786 117.013 10.8012C117.213 10.8523 117.388 10.6337 117.388 10.4274V8.31185C117.384 8.14877 117.253 8.0236 117.122 7.95396ZM85.5382 8.00861H81.3274C81.2578 8.00746 81.1915 7.97909 81.1427 7.92962C81.0939 7.88015 81.0666 7.81354 81.0666 7.74417V5.66472C81.0666 4.6607 81.5882 3.65579 82.6647 3.65579C83.881 3.65579 84.0719 4.67744 84.1241 5.45757C84.1305 5.55192 84.171 5.64074 84.2382 5.70754C84.3053 5.77433 84.3945 5.81455 84.4891 5.82074H86.2257C86.3193 5.81664 86.4082 5.77652 86.4727 5.7088C86.5372 5.64108 86.5734 5.55103 86.5726 5.45757C86.5387 2.85892 84.8931 1.75 82.2308 1.75C80.615 1.75 79.556 2.25245 78.757 3.2221C77.9579 4.19174 77.5566 5.26716 77.5566 7.20646V7.72653C77.5567 7.79591 77.5293 7.86252 77.4805 7.91198C77.4318 7.96145 77.3654 7.98983 77.2959 7.99098L70.1115 8.00861C70.0623 8.00696 70.0133 8.0151 69.9674 8.03254C69.9214 8.04998 69.8794 8.07636 69.8437 8.11018C69.8081 8.14398 69.7796 8.18453 69.7599 8.22945C69.7401 8.27436 69.7295 8.32275 69.7287 8.37179V9.77157C69.7297 9.87245 69.7703 9.96894 69.8419 10.0401C69.9135 10.1114 70.0103 10.1517 70.1115 10.1524H70.8822C70.9255 10.1528 70.968 10.1638 71.006 10.1844C71.044 10.2049 71.0764 10.2344 71.1003 10.2703C71.1243 10.3062 71.1391 10.3473 71.1435 10.3903C71.1479 10.4332 71.1416 10.4765 71.1253 10.5165C71.1253 10.5165 69.1454 15.1073 68.3463 16.9434C68.3256 16.9906 68.2916 17.0307 68.2485 17.059C68.2054 17.0872 68.1549 17.1022 68.1033 17.1022C68.0516 17.1022 68.0012 17.0872 67.958 17.059C67.9148 17.0307 67.8808 16.9906 67.8601 16.9434C67.0434 15.0923 65.0458 10.5165 65.0458 10.5165C65.0295 10.4765 65.0233 10.4332 65.0276 10.3903C65.0319 10.3473 65.0467 10.3062 65.0707 10.2703C65.0947 10.2344 65.1271 10.2049 65.1651 10.1844C65.2032 10.1638 65.2456 10.1528 65.2889 10.1524H65.8272C65.9286 10.1522 66.0259 10.1121 66.0979 10.0408C66.1698 9.96949 66.2107 9.87276 66.2117 9.77157V8.36738C66.2103 8.31872 66.1992 8.27081 66.1793 8.2264C66.1593 8.18199 66.1307 8.14197 66.0951 8.10862C66.0595 8.07528 66.0177 8.04928 65.972 8.03212C65.9264 8.01496 65.8777 8.00696 65.8289 8.00861H59.3322C59.2673 8.00959 59.2039 8.02713 59.1478 8.05956C59.0917 8.092 59.0449 8.13822 59.0118 8.19384C58.9787 8.24946 58.9605 8.31261 58.9589 8.37725C58.9573 8.44189 58.9723 8.50587 59.0025 8.56308C59.1934 8.90862 59.6275 9.72313 59.7494 9.96556C59.7813 10.0209 59.8267 10.0675 59.8814 10.1008C59.9361 10.134 59.9983 10.153 60.0623 10.1559H61.313C61.3641 10.155 61.4145 10.1687 61.4579 10.1957C61.5013 10.2226 61.5361 10.2615 61.5579 10.3075C61.5579 10.3075 66.1781 20.6572 66.3522 21.0212C66.5294 21.4833 66.5278 21.9945 66.3478 22.4554C66.1356 23.3008 64.7117 24.8143 63.9285 24.5455C63.3858 24.3586 63.316 23.3836 62.6743 23.2593C62.5549 23.2383 62.4319 23.2527 62.3207 23.3008C62.2084 23.344 61.1584 24.69 60.9277 24.9262C60.8702 24.9974 60.8388 25.0861 60.8388 25.1775C60.8388 25.2689 60.8702 25.3575 60.9277 25.4287C61.504 26.0176 62.4692 26.8144 63.8578 26.8664C65.5691 26.936 67.2626 26.7077 68.821 23.7451C68.821 23.7451 73.7973 11.6183 74.3896 10.3075C74.415 10.2642 74.4516 10.2285 74.4956 10.2041C74.5396 10.1797 74.5894 10.1677 74.6397 10.1691H77.2659C77.3354 10.1691 77.4022 10.1964 77.4518 10.245C77.5014 10.2937 77.5299 10.3598 77.531 10.4292V19.7492C77.5323 19.8244 77.508 19.8977 77.462 19.9573C77.1491 20.3557 76.5234 21.1349 76.2113 21.5334C76.1662 21.5882 76.1378 21.6548 76.1294 21.7253C76.1211 21.7957 76.1331 21.8671 76.1642 21.9309C76.1953 21.9947 76.244 22.0483 76.3047 22.0853C76.3653 22.1224 76.4354 22.1413 76.5065 22.1398H82.3775C82.4785 22.139 82.5752 22.0985 82.6468 22.0274C82.7183 21.9562 82.759 21.8599 82.7602 21.7591V20.3724C82.759 20.2716 82.7183 20.1753 82.6468 20.1042C82.5752 20.033 82.4785 19.9925 82.3775 19.9917H81.3698C81.3011 19.9903 81.2357 19.9624 81.1872 19.914C81.1388 19.8654 81.1111 19.8 81.1099 19.7316V10.4116C81.1099 10.3423 81.1371 10.2758 81.1857 10.2264C81.2343 10.177 81.3004 10.1485 81.3698 10.1472H84.4688C84.5251 10.1464 84.5805 10.1336 84.6314 10.1098C84.6823 10.0859 84.7276 10.0514 84.764 10.0087C85.0245 9.66228 85.5594 8.96944 85.8418 8.60538C85.8827 8.54945 85.9071 8.48334 85.9126 8.41435C85.9181 8.34535 85.9047 8.27616 85.8733 8.21441C85.8418 8.15267 85.7938 8.10077 85.7348 8.06445C85.6758 8.02813 85.6074 8.00881 85.5382 8.00861Z" fill="#616875"/>
<path d="M22.1868 12.4884L21.1738 8.67502C21.1572 8.61144 21.1238 8.55343 21.0772 8.50695C21.0306 8.46049 20.9725 8.42721 20.9087 8.41058L17.0875 7.40215C17.0253 7.38629 16.96 7.38681 16.898 7.40365C16.8361 7.4205 16.7795 7.45308 16.734 7.49823L14.1707 10.0546L19.5315 15.3999L22.0949 12.8436C22.14 12.7976 22.1724 12.7406 22.1885 12.6782C22.2046 12.6159 22.2041 12.5504 22.1868 12.4884Z" fill="#616875"/>
<path d="M6.14953 18.3118L7.16337 22.1234C7.18006 22.187 7.21341 22.245 7.26002 22.2915C7.30662 22.3379 7.36479 22.3711 7.42854 22.3878L11.2514 23.3989C11.3137 23.4146 11.3789 23.414 11.4409 23.3972C11.5028 23.3803 11.5594 23.3478 11.605 23.3028L14.1683 20.7465L8.80921 15.3984L6.24588 17.9547C6.19978 18.0006 6.1666 18.0577 6.14969 18.1204C6.13277 18.183 6.13272 18.2491 6.14953 18.3118Z" fill="#616875"/>
<path d="M11.2486 7.40102L7.42571 8.41121C7.36195 8.42785 7.30378 8.46112 7.25718 8.50759C7.21057 8.55406 7.17722 8.61207 7.16054 8.67566L6.14935 12.4855C6.13336 12.5475 6.13383 12.6127 6.15072 12.6745C6.16762 12.7363 6.20034 12.7927 6.24569 12.8381L8.80903 15.3944L14.1691 10.0535L11.6057 7.4971C11.5599 7.45128 11.5027 7.41829 11.4401 7.40142C11.3774 7.38456 11.3114 7.38442 11.2486 7.40102Z" fill="#616875"/>
<path d="M22.0552 17.9187L19.5299 15.3994L14.1689 20.7448L16.6952 23.2641C16.752 23.3207 16.8227 23.3616 16.9002 23.3826C16.9777 23.4036 17.0594 23.4041 17.1372 23.384L20.8593 22.3994C20.9378 22.3787 21.0095 22.3376 21.067 22.2803C21.1244 22.223 21.1656 22.1516 21.1863 22.0732L22.1736 18.3622C22.1944 18.2844 22.1944 18.2025 22.1736 18.1247C22.1529 18.0469 22.1121 17.9759 22.0552 17.9187Z" fill="#616875"/>
</g>
</g>
<defs>
<clipPath id="clip0_1469_18618">
<rect width="128" height="28" fill="white"/>
</clipPath>
</defs>
</svg>
