<svg width="317" height="88" viewBox="0 0 317 88" fill="none" xmlns="http://www.w3.org/2000/svg">
<title>HashiCorp Logo</title>
<path d="M107.692 64.4211V47.3999H92.7211V64.4211H85.0985V24.0596H92.7211V40.6616H107.692V24.0596H115.314V64.4211H107.692Z" fill="white"/>
<path d="M143.259 64.4207H137.206L136.658 62.4236C134.042 64.124 130.989 65.0295 127.869 65.0305C122.472 65.0305 120.17 61.3336 120.17 56.2417C120.17 50.2427 122.777 47.9407 128.776 47.9407H135.865V44.846C135.865 41.5759 134.958 40.4249 130.232 40.4249C127.483 40.4439 124.743 40.7376 122.053 41.3015L121.146 35.6684C124.443 34.7557 127.847 34.2866 131.268 34.2734C140.537 34.2734 143.266 37.5435 143.266 44.945L143.259 64.4207ZM135.865 53.2689H130.415C127.991 53.2689 127.328 53.9321 127.328 56.1807C127.328 58.2388 127.991 59.1535 130.3 59.1535C132.256 59.122 134.173 58.5977 135.872 57.629L135.865 53.2689Z" fill="white"/>
<path d="M157.566 65.023C154.106 64.9662 150.674 64.3933 147.383 63.3232L148.412 57.6901C151.271 58.508 154.227 58.9362 157.2 58.9631C160.471 58.9631 160.958 58.2008 160.958 55.9902C160.958 54.1761 160.592 53.2614 155.806 52.1104C148.595 50.3495 147.748 48.5354 147.748 42.8413C147.748 36.9033 150.355 34.2964 158.778 34.2964C161.758 34.2991 164.727 34.6444 167.628 35.3254L166.866 41.2024C164.186 40.708 161.472 40.4251 158.748 40.3563C155.539 40.3563 154.99 41.1186 154.99 42.9023C154.99 45.2653 155.173 45.4482 159.175 46.4773C167.438 48.665 168.23 49.755 168.23 55.7844C168.23 61.509 166.469 65.023 157.566 65.023Z" fill="white"/>
<path d="M190.229 64.421V43.84C190.229 42.2621 189.566 41.477 187.866 41.477C186.052 41.477 182.835 42.567 180.167 43.962V64.421H172.773V22.8474L180.167 21.8184V37.1474C183.514 35.4292 187.194 34.4566 190.953 34.2965C195.862 34.2965 197.615 37.7495 197.615 43.0244V64.421H190.229Z" fill="white"/>
<path d="M203.073 30.729V22.1841H210.467V30.729H203.073ZM203.073 64.4208V34.9062H210.467V64.4208H203.073Z" fill="white"/>
<path d="M215.62 35.1501C215.62 27.7562 219.919 23.457 229.981 23.457C233.678 23.4562 237.361 23.9041 240.95 24.791L240.111 31.3921C236.843 30.7728 233.528 30.4286 230.202 30.3631C224.927 30.3631 223.235 32.1849 223.235 36.4612V51.9731C223.235 56.2722 224.935 58.0712 230.202 58.0712C233.528 58.0057 236.843 57.6615 240.111 57.0421L240.957 63.6509C237.369 64.5377 233.685 64.9857 229.989 64.9848C219.927 64.9848 215.628 60.6857 215.628 53.2918L215.62 35.1501Z" fill="white"/>
<path d="M256.119 65.0232C245.996 65.0232 243.275 59.4511 243.275 53.3911V45.9363C243.275 39.8763 246.003 34.3042 256.119 34.3042C266.234 34.3042 268.963 39.8763 268.963 45.9363V53.3911C268.94 59.4511 266.219 65.0232 256.119 65.0232ZM256.119 40.6309C252.178 40.6309 250.669 42.3918 250.669 45.7228V53.6351C250.669 56.9661 252.193 58.7269 256.119 58.7269C260.044 58.7269 261.569 56.9661 261.569 53.6351V45.6923C261.554 42.3613 260.037 40.6005 256.119 40.6005V40.6309Z" fill="white"/>
<path d="M288.576 41.0881C285.862 42.3177 283.247 43.755 280.755 45.3872V64.4437H273.361V34.9062H279.604L280.092 38.1763C282.497 36.5478 285.106 35.2433 287.852 34.2964L288.576 41.0881Z" fill="white"/>
<path d="M316.611 54.6032C316.611 61.151 313.7 65.0232 306.855 65.0232C304.206 64.9954 301.566 64.7095 298.973 64.1695V76.3656L291.579 77.3947V34.9064H297.456L298.218 37.3914C300.912 35.3798 304.186 34.2965 307.548 34.3042C313.486 34.3042 316.634 37.8182 316.634 44.549L316.611 54.6032ZM298.98 57.9342C301.132 58.4077 303.326 58.6631 305.528 58.6965C308.196 58.6965 309.225 57.4235 309.225 54.7556V44.3508C309.225 41.9268 308.318 40.5929 305.589 40.5929C303.142 40.681 300.803 41.6251 298.98 43.2608V57.9342Z" fill="white"/>
<path d="M29.1335 7L0 23.8078V23.8154V64.1693L10.946 70.4885V30.1269L29.1335 19.623V7Z" fill="white"/>
<path d="M40.758 7V39.1444H29.1335V27.1465L18.1875 33.4656V74.6504L29.1335 80.9847V48.9318H40.758V60.8459L51.704 54.5344V13.3191L40.758 7Z" fill="white"/>
<path d="M40.7579 81.0002L69.8914 64.1924V64.1771V23.8308L58.9454 17.5117V57.8733L40.7579 68.3772V81.0002Z" fill="white"/>
</svg>
